<svg width="562" height="562" viewBox="0 0 562 562" fill="none" xmlns="http://www.w3.org/2000/svg">
<path d="M505.688 447.902H468.461V448.183H505.688V447.902Z" fill="#EBEBEB"/>
<path d="M372.291 450.961H362.524V451.242H372.291V450.961Z" fill="#EBEBEB"/>
<path d="M467.337 437.473H445.767V437.754H467.337V437.473Z" fill="#EBEBEB"/>
<path d="M107.51 439.361H58.9648V439.642H107.51V439.361Z" fill="#EBEBEB"/>
<path d="M124.64 439.361H117.525V439.642H124.64V439.361Z" fill="#EBEBEB"/>
<path d="M253.069 444.104H147.772V444.385H253.069V444.104Z" fill="#EBEBEB"/>
<path d="M266.388 379.688H49.3663C47.6641 379.688 46.0317 379.011 44.828 377.808C43.6244 376.604 42.9482 374.972 42.9482 373.269V68.1822C42.9631 66.4897 43.6458 64.8717 44.8478 63.6802C46.0498 62.4887 47.6738 61.8202 49.3663 61.8203H266.388C268.09 61.8203 269.723 62.4965 270.926 63.7001C272.13 64.9037 272.806 66.5362 272.806 68.2384V373.269C272.806 374.972 272.13 376.604 270.926 377.808C269.723 379.011 268.09 379.688 266.388 379.688ZM49.3663 62.0451C47.7395 62.0481 46.1803 62.6956 45.03 63.8459C43.8797 64.9962 43.2322 66.5554 43.2292 68.1822V373.269C43.2322 374.896 43.8797 376.455 45.03 377.606C46.1803 378.756 47.7395 379.404 49.3663 379.406H266.388C268.015 379.404 269.574 378.756 270.724 377.606C271.875 376.455 272.522 374.896 272.525 373.269V68.1822C272.522 66.5554 271.875 64.9962 270.724 63.8459C269.574 62.6956 268.015 62.0481 266.388 62.0451H49.3663Z" fill="#EBEBEB"/>
<path d="M509.521 379.688H292.476C290.775 379.685 289.144 379.007 287.941 377.804C286.738 376.601 286.061 374.971 286.058 373.269V68.1822C286.076 66.4907 286.76 64.8743 287.961 63.6834C289.162 62.4926 290.785 61.8232 292.476 61.8203H509.521C511.209 61.8262 512.827 62.4972 514.025 63.6881C515.222 64.8789 515.901 66.4936 515.916 68.1822V373.269C515.916 374.968 515.243 376.597 514.044 377.8C512.845 379.003 511.219 379.682 509.521 379.688ZM292.476 62.0451C290.849 62.0481 289.29 62.6956 288.14 63.8459C286.99 64.9962 286.342 66.5554 286.339 68.1822V373.269C286.342 374.896 286.99 376.455 288.14 377.606C289.29 378.756 290.849 379.404 292.476 379.406H509.521C511.147 379.404 512.707 378.756 513.857 377.606C515.007 376.455 515.655 374.896 515.658 373.269V68.1822C515.655 66.5554 515.007 64.9962 513.857 63.8459C512.707 62.6956 511.147 62.0481 509.521 62.0451H292.476Z" fill="#EBEBEB"/>
<path d="M562 429.818H0V430.099H562V429.818Z" fill="#EBEBEB"/>
<path d="M109.815 112.76H107.792V270.536H109.815V112.76Z" fill="#E0E0E0"/>
<path d="M235.759 112.76H233.736V270.536H235.759V112.76Z" fill="#E0E0E0"/>
<path d="M243.683 122.685H99.8673L96.8325 115.604H246.718L243.683 122.685Z" fill="#EBEBEB"/>
<path d="M243.683 132.407H99.8673L96.8325 125.326H246.718L243.683 132.407Z" fill="#EBEBEB"/>
<path d="M243.683 142.13H99.8673L96.8325 135.049H246.718L243.683 142.13Z" fill="#EBEBEB"/>
<path d="M243.683 151.853H99.8673L96.8325 144.771H246.718L243.683 151.853Z" fill="#EBEBEB"/>
<path d="M243.683 161.575H99.8673L96.8325 154.494H246.718L243.683 161.575Z" fill="#EBEBEB"/>
<path d="M243.683 171.298H99.8673L96.8325 164.217H246.718L243.683 171.298Z" fill="#EBEBEB"/>
<path d="M243.683 181.021H99.8673L96.8325 173.939H246.718L243.683 181.021Z" fill="#EBEBEB"/>
<path d="M243.683 190.743H99.8673L96.8325 183.662H246.718L243.683 190.743Z" fill="#EBEBEB"/>
<path d="M243.683 200.454H99.8673L96.8325 193.373H246.718L243.683 200.454Z" fill="#EBEBEB"/>
<path d="M243.683 210.177H99.8673L96.8325 203.096H246.718L243.683 210.177Z" fill="#EBEBEB"/>
<path d="M243.683 219.9H99.8673L96.8325 212.818H246.718L243.683 219.9Z" fill="#EBEBEB"/>
<path d="M243.683 229.622H99.8673L96.8325 222.541H246.718L243.683 229.622Z" fill="#EBEBEB"/>
<path d="M243.683 239.345H99.8673L96.8325 232.264H246.718L243.683 239.345Z" fill="#EBEBEB"/>
<path d="M243.683 249.068H99.8673L96.8325 241.986H246.718L243.683 249.068Z" fill="#EBEBEB"/>
<path d="M243.683 258.79H99.8673L96.8325 251.709H246.718L243.683 258.79Z" fill="#EBEBEB"/>
<path d="M243.683 268.513H99.8673L96.8325 261.432H246.718L243.683 268.513Z" fill="#EBEBEB"/>
<path d="M246.718 268.512H96.8325V272.558H246.718V268.512Z" fill="#E0E0E0"/>
<path d="M251.945 106.734H91.606V116.176H251.945V106.734Z" fill="#E0E0E0"/>
<path d="M93.2919 201.781C92.8597 201.781 92.4451 201.609 92.1395 201.304C91.8338 200.998 91.6621 200.583 91.6621 200.151V145.075C91.6621 144.861 91.7043 144.649 91.7862 144.451C91.8681 144.254 91.9881 144.074 92.1395 143.923C92.2908 143.771 92.4705 143.651 92.6682 143.569C92.8659 143.487 93.0779 143.445 93.2919 143.445C93.7242 143.445 94.1387 143.617 94.4444 143.923C94.75 144.228 94.9217 144.643 94.9217 145.075V200.151C94.9217 200.365 94.8795 200.577 94.7976 200.775C94.7157 200.973 94.5957 201.152 94.4444 201.304C94.293 201.455 94.1133 201.575 93.9156 201.657C93.7179 201.739 93.5059 201.781 93.2919 201.781Z" fill="#E0E0E0"/>
<path d="M93.8428 114.289H92.6626V146.997H93.8428V114.289Z" fill="#E0E0E0"/>
<path d="M276.358 172.814H281.349C282.168 172.814 282.955 173.14 283.534 173.72C284.114 174.299 284.44 175.086 284.44 175.905V321.003H273.256V175.905C273.256 175.499 273.336 175.096 273.492 174.72C273.648 174.344 273.877 174.003 274.165 173.716C274.453 173.429 274.795 173.201 275.172 173.047C275.548 172.892 275.951 172.813 276.358 172.814Z" fill="#E6E6E6"/>
<path d="M279.798 172.814H276.718C275.802 172.814 274.923 173.178 274.274 173.824C273.625 174.471 273.259 175.349 273.256 176.265V321.003H276.336V176.265C276.339 175.349 276.705 174.471 277.354 173.824C278.002 173.178 278.881 172.814 279.798 172.814Z" fill="#F0F0F0"/>
<path d="M287.688 311.438H270.086V430.098H287.688V311.438Z" fill="#EBEBEB"/>
<path d="M263.825 425.299H293.949C295.087 425.299 296.18 425.751 296.985 426.556C297.79 427.362 298.242 428.454 298.242 429.593V430.087H259.532V429.593C259.532 428.454 259.984 427.362 260.789 426.556C261.595 425.751 262.687 425.299 263.825 425.299Z" fill="#E6E6E6"/>
<path d="M445.576 371.482H473.957C476.404 371.479 478.749 370.506 480.479 368.776C482.209 367.046 483.182 364.701 483.185 362.254V320.756C483.185 320.309 483.008 319.88 482.691 319.564C482.375 319.248 481.946 319.07 481.499 319.07C481.052 319.07 480.623 319.248 480.307 319.564C479.991 319.88 479.813 320.309 479.813 320.756V362.254C479.813 363.808 479.196 365.297 478.098 366.395C477 367.493 475.51 368.11 473.957 368.11H445.576V371.482Z" fill="#E0E0E0"/>
<path d="M437.461 411.249V372.606L435.213 371.898C433.969 371.506 432.882 370.728 432.11 369.677C431.338 368.626 430.921 367.357 430.919 366.053H452.331C452.331 367.357 451.915 368.628 451.142 369.679C450.37 370.73 449.282 371.507 448.038 371.898L445.79 372.606V411.249L463.56 419.252V422.624L441.608 414.947L419.657 422.624V419.252L437.461 411.249Z" fill="#E0E0E0"/>
<path d="M413.632 368.109H469.619C470.417 368.109 471.208 367.952 471.946 367.647C472.683 367.341 473.354 366.893 473.918 366.328C474.483 365.764 474.931 365.093 475.237 364.356C475.542 363.618 475.699 362.827 475.699 362.029C475.696 360.418 475.054 358.874 473.914 357.736C472.774 356.598 471.229 355.959 469.619 355.959H413.632C412.022 355.959 410.479 356.598 409.34 357.737C408.202 358.875 407.563 360.419 407.563 362.029C407.561 362.827 407.717 363.617 408.021 364.355C408.326 365.092 408.772 365.763 409.336 366.328C409.9 366.893 410.57 367.341 411.307 367.646C412.044 367.952 412.834 368.109 413.632 368.109Z" fill="#F0F0F0"/>
<path d="M479.476 335.356L482.5 292.15C482.611 290.546 482.082 288.964 481.028 287.751C479.975 286.537 478.483 285.791 476.88 285.676C475.274 285.561 473.689 286.089 472.473 287.143C471.257 288.197 470.509 289.69 470.394 291.296L467.371 334.502C467.259 336.107 467.788 337.69 468.841 338.905C469.895 340.121 471.387 340.87 472.991 340.988C474.597 341.099 476.182 340.568 477.398 339.513C478.613 338.457 479.361 336.962 479.476 335.356Z" fill="#EBEBEB"/>
<path d="M459.716 424.996C459.716 425.757 459.941 426.5 460.364 427.132C460.786 427.764 461.386 428.257 462.089 428.548C462.791 428.839 463.564 428.915 464.31 428.767C465.056 428.618 465.74 428.252 466.278 427.715C466.816 427.177 467.182 426.492 467.33 425.746C467.478 425.001 467.402 424.228 467.111 423.525C466.82 422.823 466.328 422.223 465.696 421.8C465.063 421.378 464.32 421.152 463.56 421.152C463.055 421.152 462.555 421.252 462.089 421.445C461.622 421.638 461.199 421.921 460.842 422.278C460.485 422.635 460.202 423.059 460.008 423.525C459.815 423.992 459.716 424.492 459.716 424.996Z" fill="#E0E0E0"/>
<path d="M415.812 424.996C415.812 425.757 416.038 426.5 416.46 427.132C416.883 427.764 417.483 428.257 418.185 428.548C418.888 428.839 419.661 428.915 420.407 428.767C421.152 428.618 421.837 428.252 422.375 427.715C422.912 427.177 423.278 426.492 423.427 425.746C423.575 425.001 423.499 424.228 423.208 423.525C422.917 422.823 422.424 422.223 421.792 421.8C421.16 421.378 420.417 421.152 419.657 421.152C418.637 421.152 417.659 421.557 416.938 422.278C416.217 422.999 415.812 423.977 415.812 424.996Z" fill="#E0E0E0"/>
<path d="M112.816 371.482H84.4351C81.9866 371.482 79.6383 370.511 77.9059 368.78C76.1735 367.05 75.1988 364.703 75.1958 362.254V320.756C75.1958 320.309 75.3734 319.88 75.6896 319.564C76.0058 319.248 76.4346 319.07 76.8818 319.07C77.329 319.07 77.7578 319.248 78.074 319.564C78.3902 319.88 78.5678 320.309 78.5678 320.756V362.254C78.5708 363.809 79.1902 365.298 80.2903 366.396C81.3903 367.494 82.8809 368.11 84.4351 368.11H112.816V371.482Z" fill="#E0E0E0"/>
<path d="M120.931 411.249V372.606L123.179 371.898C124.422 371.505 125.507 370.727 126.277 369.676C127.047 368.625 127.462 367.356 127.462 366.053H106.106C106.108 367.357 106.525 368.626 107.297 369.677C108.069 370.728 109.156 371.506 110.399 371.898L112.647 372.606V411.249L94.832 419.252V422.624L116.784 414.947L138.735 422.624V419.252L120.931 411.249Z" fill="#E0E0E0"/>
<path d="M144.771 368.109H88.7962C87.1854 368.106 85.6416 367.464 84.5036 366.324C83.3657 365.184 82.7266 363.639 82.7266 362.029C82.7266 360.419 83.366 358.875 84.5043 357.737C85.6426 356.598 87.1864 355.959 88.7962 355.959H144.771C146.382 355.959 147.927 356.598 149.067 357.736C150.207 358.874 150.849 360.418 150.852 362.029C150.852 363.641 150.212 365.188 149.071 366.328C147.931 367.469 146.384 368.109 144.771 368.109Z" fill="#F0F0F0"/>
<path d="M78.9048 335.356L75.8813 292.15C75.77 290.546 76.2992 288.964 77.3527 287.751C78.4063 286.537 79.8982 285.791 81.5013 285.676C83.1065 285.561 84.6914 286.089 85.9076 287.143C87.1237 288.197 87.8716 289.69 87.9868 291.296L91.044 334.513C91.1554 336.118 90.6266 337.701 89.5733 338.917C88.52 340.132 87.0281 340.881 85.424 340.999C84.6251 341.058 83.8222 340.96 83.0615 340.708C82.3008 340.456 81.5974 340.057 80.9915 339.533C80.3857 339.008 79.8895 338.369 79.5314 337.653C79.1733 336.936 78.9604 336.156 78.9048 335.356Z" fill="#EBEBEB"/>
<path d="M98.6647 424.996C98.6647 425.757 98.439 426.501 98.0161 427.133C97.5932 427.766 96.9922 428.258 96.2891 428.549C95.586 428.84 94.8125 428.915 94.0666 428.766C93.3206 428.617 92.6356 428.249 92.0985 427.711C91.5613 427.172 91.1961 426.486 91.0491 425.739C90.902 424.993 90.9797 424.22 91.2724 423.518C91.5651 422.815 92.0595 422.216 92.6932 421.795C93.3268 421.374 94.0711 421.15 94.8319 421.152C95.3362 421.152 95.8355 421.252 96.3012 421.445C96.767 421.639 97.19 421.922 97.5461 422.279C97.9021 422.636 98.1842 423.06 98.3762 423.526C98.5682 423.993 98.6662 424.492 98.6647 424.996Z" fill="#E0E0E0"/>
<path d="M142.568 424.996C142.568 425.757 142.342 426.501 141.919 427.133C141.497 427.766 140.895 428.258 140.192 428.549C139.489 428.84 138.716 428.915 137.97 428.766C137.224 428.617 136.539 428.249 136.002 427.711C135.465 427.172 135.099 426.486 134.952 425.739C134.805 424.993 134.883 424.22 135.176 423.518C135.468 422.815 135.963 422.216 136.596 421.795C137.23 421.374 137.974 421.15 138.735 421.152C139.239 421.152 139.739 421.252 140.205 421.445C140.67 421.639 141.093 421.922 141.449 422.279C141.805 422.636 142.088 423.06 142.28 423.526C142.471 423.993 142.57 424.492 142.568 424.996Z" fill="#E0E0E0"/>
<path d="M233.432 430.099H211.514L209.266 388.533H235.68L233.432 430.099Z" fill="#EBEBEB"/>
<path d="M216.572 430.1H207.58V428.245L216.572 427.121V430.1Z" fill="#E0E0E0"/>
<path d="M212.604 385.162H232.342C233.236 385.162 234.094 385.517 234.726 386.15C235.359 386.782 235.714 387.64 235.714 388.534H209.255C209.255 387.64 209.61 386.782 210.243 386.15C210.875 385.517 211.733 385.162 212.627 385.162H212.604Z" fill="#E0E0E0"/>
<path d="M188.472 322.295H153.381V318.092L188.472 315.844V322.295Z" fill="#E0E0E0"/>
<path d="M240.356 326.578H136.577V340.943H240.356V326.578Z" fill="#F0F0F0"/>
<path d="M261.869 322.297H115.435V330.862H261.869V322.297Z" fill="#FAFAFA"/>
<path d="M248.269 430.099H254.878L243.436 330.861H235.68L248.269 430.099Z" fill="#E6E6E6"/>
<path d="M141.624 330.861H133.869L122.415 430.099H129.035L141.624 330.861Z" fill="#E6E6E6"/>
<path d="M224.002 320.16C221.004 305.278 218.007 290.389 215.01 275.492C214.583 273.368 211.323 274.267 211.75 276.392L220.304 318.924H201.758C201.311 318.924 200.882 319.101 200.566 319.418C200.249 319.734 200.072 320.163 200.072 320.61C200.072 321.057 200.249 321.486 200.566 321.802C200.882 322.118 201.311 322.296 201.758 322.296H222.361C222.62 322.294 222.876 322.233 223.109 322.117C223.341 322.001 223.544 321.834 223.702 321.628C223.86 321.422 223.97 321.183 224.022 320.929C224.073 320.674 224.067 320.411 224.002 320.16Z" fill="#E0E0E0"/>
<path d="M203.006 308.179L208.783 225.588C210.917 227.11 212.624 229.156 213.74 231.527C214.855 233.899 215.343 236.518 215.156 239.132L211.211 295.613C211.035 298.235 210.188 300.768 208.751 302.969C207.314 305.169 205.336 306.964 203.006 308.179Z" fill="#FAFAFA"/>
<path d="M248.022 298.287H238.625C236.825 298.287 235.366 299.746 235.366 301.547V319.036C235.366 320.836 236.825 322.296 238.625 322.296H248.022C249.822 322.296 251.282 320.836 251.282 319.036V301.547C251.282 299.746 249.822 298.287 248.022 298.287Z" fill="#F5F5F5"/>
<path d="M241.66 289.352C239.176 289.352 237.164 289.97 237.164 290.723C237.164 291.476 239.187 290.453 241.66 290.453C241.978 290.436 242.297 290.436 242.615 290.453V295.893H244.032V290.667C245.313 290.903 246.167 291.161 246.167 290.667C246.156 289.992 244.144 289.352 241.66 289.352Z" fill="#E0E0E0"/>
<path d="M245.864 294.186H240.794V299.255H245.864V294.186Z" fill="#F0F0F0"/>
<path d="M318.036 340.955H421.815V326.59H318.036V340.955Z" fill="#F0F0F0"/>
<path d="M296.522 330.873H442.957V322.308H296.522V330.873Z" fill="#FAFAFA"/>
<path d="M310.123 430.099H303.502L314.945 330.861H322.7L310.123 430.099Z" fill="#E6E6E6"/>
<path d="M416.768 330.861H424.524L435.966 430.099H429.346L416.768 330.861Z" fill="#E6E6E6"/>
<path d="M373.539 73.5781H371.032V151.393H373.539V73.5781Z" fill="#E0E0E0"/>
<path d="M341.033 166.386L372.302 117.863L403.561 166.386H341.033Z" fill="#E0E0E0"/>
<path d="M169.083 73.5781H166.577V136.106H169.083V73.5781Z" fill="#E0E0E0"/>
<path d="M136.577 164.339L167.836 115.816L199.094 164.339H136.577Z" fill="#FAFAFA"/>
<path d="M275.582 476.25C395.943 476.25 493.515 470.554 493.515 463.526C493.515 456.499 395.943 450.803 275.582 450.803C155.222 450.803 57.6499 456.499 57.6499 463.526C57.6499 470.554 155.222 476.25 275.582 476.25Z" fill="#F5F5F5"/>
<path d="M389.702 456.826C389.702 456.703 389.702 456.59 389.612 456.467C389.522 456.343 389.511 456.096 389.454 455.916L389.263 455.388L389.061 454.927L369.211 411.001L365.727 403.279L362.984 397.221H302.063L303.109 403.279L304.446 411.001L311.415 451.251C311.415 451.398 311.415 451.532 311.471 451.679C311.483 451.817 311.483 451.956 311.471 452.094V452.196C311.471 452.33 311.471 452.465 311.471 452.611L311.348 452.971C311.322 453.124 311.285 453.274 311.235 453.421C311.212 453.525 311.178 453.627 311.134 453.724V453.814V453.893C311.081 454.012 311.021 454.129 310.954 454.241C310.89 454.375 310.815 454.503 310.73 454.623L310.662 454.725L310.449 454.994C310.353 455.116 310.252 455.232 310.145 455.343C309.959 455.537 309.756 455.713 309.538 455.871C309.366 456 309.181 456.113 308.987 456.208C308.864 456.288 308.732 456.352 308.594 456.399C308.455 456.462 308.313 456.514 308.167 456.557H308.111C307.981 456.597 307.85 456.631 307.717 456.658C307.388 456.727 307.053 456.76 306.717 456.759H279.932C279.677 456.757 279.423 456.795 279.179 456.871C279.017 456.927 278.859 456.995 278.707 457.074C278.343 457.272 278.032 457.553 277.796 457.894C277.704 458.033 277.625 458.18 277.56 458.333C277.424 458.652 277.356 458.997 277.358 459.344V462.222C277.356 462.569 277.424 462.913 277.56 463.233C277.625 463.386 277.704 463.533 277.796 463.672C278.032 464.012 278.343 464.293 278.707 464.492C278.859 464.571 279.017 464.639 279.179 464.694C279.423 464.771 279.677 464.809 279.932 464.807H387.173C387.731 464.808 388.276 464.64 388.735 464.324C388.888 464.226 389.028 464.108 389.151 463.975C389.28 463.847 389.396 463.708 389.499 463.559C389.597 463.414 389.68 463.26 389.747 463.098C389.891 462.741 389.963 462.359 389.96 461.974V458.985C389.951 458.258 389.864 457.535 389.702 456.826Z" fill="#263238"/>
<path opacity="0.2" d="M277.358 459.502V462.39C277.356 462.73 277.422 463.067 277.552 463.381C277.681 463.696 277.871 463.981 278.112 464.222C278.352 464.462 278.638 464.652 278.952 464.782C279.266 464.911 279.603 464.977 279.943 464.975H387.173C387.915 464.973 388.626 464.677 389.152 464.153C389.679 463.629 389.977 462.919 389.983 462.177V459.176C389.983 458.385 389.892 457.597 389.713 456.826C389.559 456.155 389.34 455.5 389.061 454.871L362.973 397.176H302.063L311.415 451.206C311.474 451.521 311.501 451.842 311.494 452.162C311.467 453.439 310.94 454.654 310.025 455.546C309.11 456.438 307.882 456.934 306.604 456.928H279.943C279.604 456.926 279.268 456.992 278.955 457.12C278.641 457.249 278.356 457.438 278.116 457.678C277.876 457.917 277.685 458.201 277.555 458.514C277.425 458.827 277.358 459.163 277.358 459.502Z" fill="white"/>
<path d="M392.501 454.882L366.424 397.176H362.973L389.05 454.882C389.661 456.231 389.979 457.695 389.983 459.176V462.165C389.983 462.911 389.687 463.625 389.16 464.152C388.633 464.679 387.918 464.975 387.173 464.975H390.624C390.992 464.975 391.357 464.903 391.697 464.761C392.037 464.62 392.347 464.413 392.607 464.152C392.867 463.891 393.073 463.581 393.213 463.24C393.352 462.899 393.424 462.534 393.422 462.165V459.176C393.423 457.695 393.108 456.232 392.501 454.882Z" fill="#263238"/>
<path opacity="0.3" d="M362.973 397.176H302.063L304.458 410.967H369.2L362.973 397.176Z" fill="black"/>
<path d="M483.039 205.951L468.427 373.427L466.651 393.727C466.39 396.301 465.195 398.69 463.291 400.443C461.388 402.195 458.908 403.189 456.321 403.236H196.407C195.191 403.256 193.984 403.017 192.866 402.534C191.749 402.052 190.748 401.337 189.928 400.438C189.108 399.538 188.489 398.475 188.112 397.318C187.735 396.161 187.609 394.937 187.741 393.727L189.517 373.427L204.129 205.951C204.39 203.378 205.586 200.991 207.49 199.24C209.393 197.49 211.873 196.498 214.459 196.454H474.328C476.372 196.431 478.359 197.123 479.948 198.409C480.163 198.582 480.366 198.77 480.555 198.971C481.146 199.554 481.642 200.225 482.027 200.961C482.3 201.451 482.515 201.972 482.668 202.512C483.009 203.624 483.135 204.792 483.039 205.951Z" fill="#263238"/>
<path d="M189.529 373.426L187.708 393.725C187.577 394.935 187.705 396.16 188.083 397.317C188.462 398.474 189.082 399.537 189.902 400.436C190.723 401.336 191.725 402.05 192.843 402.532C193.961 403.015 195.168 403.254 196.385 403.234H456.276C458.863 403.187 461.343 402.193 463.247 400.441C465.15 398.689 466.345 396.299 466.606 393.725L468.382 373.426H189.529Z" fill="#407BFF"/>
<path opacity="0.6" d="M189.529 373.426L187.708 393.725C187.577 394.935 187.705 396.16 188.083 397.317C188.462 398.474 189.082 399.537 189.902 400.436C190.723 401.336 191.725 402.05 192.843 402.532C193.961 403.015 195.168 403.254 196.385 403.234H456.276C458.863 403.187 461.343 402.193 463.247 400.441C465.15 398.689 466.345 396.299 466.606 393.725L468.382 373.426H189.529Z" fill="white"/>
<path d="M459.221 367.682H199.701C199.042 367.694 198.388 367.565 197.782 367.305C197.176 367.044 196.633 366.657 196.188 366.17C195.744 365.683 195.408 365.107 195.204 364.48C194.999 363.853 194.931 363.19 195.003 362.534L208.581 207.344C208.721 205.944 209.372 204.645 210.408 203.693C211.444 202.742 212.794 202.205 214.201 202.184H473.699C474.359 202.172 475.014 202.301 475.621 202.563C476.227 202.824 476.771 203.212 477.216 203.7C477.661 204.188 477.996 204.766 478.2 205.394C478.403 206.023 478.471 206.687 478.397 207.344L464.819 362.534C464.676 363.928 464.028 365.222 462.997 366.17C461.965 367.119 460.622 367.656 459.221 367.682Z" fill="#407BFF"/>
<path d="M480.116 196.453H474.328C475.544 196.431 476.751 196.669 477.868 197.15C478.985 197.631 479.987 198.345 480.807 199.243C481.627 200.142 482.246 201.205 482.623 202.361C483 203.518 483.127 204.741 482.994 205.951L466.606 393.726C466.345 396.3 465.15 398.689 463.246 400.442C461.343 402.194 458.863 403.188 456.276 403.235H462.02C464.608 403.188 467.089 402.195 468.995 400.443C470.9 398.69 472.097 396.301 472.361 393.726L488.782 205.951C488.917 204.741 488.792 203.517 488.416 202.359C488.039 201.202 487.42 200.138 486.6 199.239C485.78 198.34 484.777 197.627 483.659 197.146C482.541 196.666 481.333 196.429 480.116 196.453Z" fill="#263238"/>
<g opacity="0.2">
<path d="M480.116 196.453H474.328C475.544 196.431 476.751 196.669 477.868 197.15C478.985 197.631 479.987 198.345 480.807 199.243C481.627 200.142 482.246 201.205 482.623 202.361C483 203.518 483.127 204.741 482.994 205.951L466.606 393.726C466.345 396.3 465.15 398.689 463.246 400.442C461.343 402.194 458.863 403.188 456.276 403.235H462.02C464.608 403.188 467.089 402.195 468.995 400.443C470.9 398.69 472.097 396.301 472.361 393.726L488.782 205.951C488.917 204.741 488.792 203.517 488.416 202.359C488.039 201.202 487.42 200.138 486.6 199.239C485.78 198.34 484.777 197.627 483.659 197.146C482.541 196.666 481.333 196.429 480.116 196.453Z" fill="white"/>
</g>
<g opacity="0.1">
<path d="M296.871 202.186H286.89L251.72 367.683H261.701L296.871 202.186Z" fill="white"/>
<path d="M241.626 367.683L276.807 202.186H239.299L204.118 367.683H241.626Z" fill="white"/>
</g>
<path opacity="0.2" d="M371.448 459.526V462.268C371.448 462.985 371.165 463.672 370.659 464.18C370.153 464.687 369.467 464.974 368.751 464.977H279.955C279.269 464.977 278.612 464.705 278.127 464.22C277.642 463.735 277.37 463.078 277.37 462.392V459.515C277.37 458.829 277.642 458.171 278.127 457.686C278.612 457.202 279.269 456.929 279.955 456.929H306.627C306.963 456.93 307.299 456.896 307.628 456.828H368.762C369.476 456.831 370.159 457.117 370.662 457.622C371.166 458.128 371.448 458.812 371.448 459.526Z" fill="white"/>
<path opacity="0.2" d="M389.713 456.827H307.661C308.738 456.599 309.707 456.015 310.411 455.168C311.115 454.322 311.512 453.263 311.539 452.162H387.656L389.713 456.827Z" fill="black"/>
<path opacity="0.3" d="M467.326 229.51H342.427V373.404H467.326V229.51Z" fill="black"/>
<path d="M460.739 214.324H336.076V367.11H460.739V214.324Z" fill="white"/>
<path d="M460.739 214.324H336.076V223.361H460.739V214.324Z" fill="#263238"/>
<path opacity="0.1" d="M460.739 223.361H370.639V367.11H460.739V223.361Z" fill="black"/>
<path opacity="0.1" d="M400.392 226.801H375.079V256.07H400.392V226.801Z" fill="black"/>
<path opacity="0.1" d="M457.704 226.801H405.202V238.85H457.704V226.801Z" fill="black"/>
<path opacity="0.1" d="M457.704 244.02H405.202V309.009H457.704V244.02Z" fill="black"/>
<path opacity="0.1" d="M457.704 314.17H405.202V362.805H457.704V314.17Z" fill="black"/>
<path d="M405.214 267.254H370.358V278.449H405.214V267.254Z" fill="#407BFF"/>
<path d="M370.931 244.02H336.076V255.215H370.931V244.02Z" fill="#407BFF"/>
<path d="M457.704 324.824H405.202V330.635H457.704V324.824Z" fill="black"/>
<path d="M410.485 231.679L411.575 229.465L412.666 231.679L415.105 232.028L413.34 233.759L413.756 236.186L411.575 235.04L409.395 236.186L409.811 233.759L408.035 232.039L410.485 231.679Z" fill="#407BFF"/>
<path d="M420.421 231.679L421.511 229.465L422.613 231.679L425.052 232.028L423.287 233.759L423.703 236.186L421.523 235.04L419.331 236.186L419.747 233.759L417.982 232.039L420.421 231.679Z" fill="#407BFF"/>
<path d="M430.369 231.679L431.459 229.465L432.549 231.679L434.988 232.028L433.224 233.759L433.651 236.186L431.459 235.04L429.279 236.186L429.694 233.759L427.93 232.039L430.369 231.679Z" fill="#407BFF"/>
<path d="M440.305 231.679L441.395 229.465L442.497 231.679L444.936 232.028L443.171 233.759L443.587 236.186L441.406 235.04L439.226 236.186L439.63 233.759L437.866 232.039L440.305 231.679Z" fill="black"/>
<path d="M450.252 231.679L451.342 229.465L452.433 231.679L454.872 232.028L453.118 233.759L453.534 236.186L451.342 235.04L449.162 236.186L449.578 233.759L447.813 232.039L450.252 231.679Z" fill="black"/>
<path d="M429.593 249.752H408.945V250.876H429.593V249.752Z" fill="#263238"/>
<path d="M425.243 259.43H408.945V260.554H425.243V259.43Z" fill="#263238"/>
<path d="M425.243 267.895H408.945V269.019H425.243V267.895Z" fill="#263238"/>
<path d="M425.243 276.346H408.945V277.47H425.243V276.346Z" fill="#263238"/>
<path d="M425.243 284.799H408.945V285.923H425.243V284.799Z" fill="#263238"/>
<path d="M425.243 293.264H408.945V294.388H425.243V293.264Z" fill="#263238"/>
<path d="M425.243 301.715H408.945V302.839H425.243V301.715Z" fill="#263238"/>
<path d="M443.789 259.43H427.491V260.554H443.789V259.43Z" fill="#263238"/>
<path d="M443.789 267.895H427.491V269.019H443.789V267.895Z" fill="#263238"/>
<path d="M443.789 276.346H427.491V277.47H443.789V276.346Z" fill="#263238"/>
<path d="M443.789 284.799H427.491V285.923H443.789V284.799Z" fill="#263238"/>
<path d="M443.789 293.264H427.491V294.388H443.789V293.264Z" fill="#263238"/>
<path d="M443.789 301.715H427.491V302.839H443.789V301.715Z" fill="#263238"/>
<path d="M443.789 252.979H408.945V254.103H443.789V252.979Z" fill="#263238"/>
<path d="M443.789 319.732H408.945V320.856H443.789V319.732Z" fill="#263238"/>
<path d="M400.392 259.43H375.079V260.554H400.392V259.43Z" fill="#263238"/>
<path d="M400.392 284.057H375.079V285.181H400.392V284.057Z" fill="#263238"/>
<path d="M400.392 293.477H375.079V294.601H400.392V293.477Z" fill="#263238"/>
<path d="M400.392 302.885H375.079V304.009H400.392V302.885Z" fill="#263238"/>
<path d="M400.392 312.303H375.079V313.427H400.392V312.303Z" fill="#263238"/>
<path d="M400.392 321.723H375.079V322.847H400.392V321.723Z" fill="#263238"/>
<path d="M400.392 331.131H375.079V332.255H400.392V331.131Z" fill="#263238"/>
<path d="M400.392 340.549H375.079V341.673H400.392V340.549Z" fill="#263238"/>
<path d="M400.392 349.957H375.079V351.081H400.392V349.957Z" fill="#263238"/>
<path d="M387.735 263.061H375.079V264.185H387.735V263.061Z" fill="#263238"/>
<path d="M366.582 228.902H340.438V230.026H366.582V228.902Z" fill="#263238"/>
<path d="M366.582 236.164H340.438V237.288H366.582V236.164Z" fill="#263238"/>
<path d="M366.582 263.061H340.438V264.185H366.582V263.061Z" fill="#263238"/>
<path d="M375.124 255.924V252.361C383.047 249.528 391.691 249.437 399.672 252.102L400.437 252.361V255.924H375.124Z" fill="white"/>
<path d="M386.522 254.956C388.523 254.727 390.353 253.717 391.613 252.146C391.792 251.886 391.876 251.572 391.851 251.257C391.827 250.942 391.695 250.645 391.478 250.415C389.68 248.291 389.354 243.559 389.376 240.771L387.353 243.368L384.599 246.909C384.791 247.347 384.97 247.785 385.117 248.235C385.227 248.556 385.306 248.887 385.353 249.224C385.467 249.84 385.392 250.476 385.137 251.048C384.882 251.62 384.46 252.101 383.925 252.427C383.719 252.564 383.554 252.755 383.449 252.979C383.343 253.203 383.302 253.451 383.329 253.698C383.355 253.944 383.449 254.178 383.6 254.374C383.751 254.57 383.953 254.721 384.184 254.81C384.939 255.049 385.742 255.1 386.522 254.956Z" fill="#F7978D"/>
<path opacity="0.2" d="M384.599 246.909C384.79 247.348 384.97 247.786 385.116 248.236C385.227 248.557 385.306 248.888 385.352 249.225C386.037 248.895 386.624 248.393 387.057 247.769C387.491 247.144 387.755 246.418 387.825 245.662C387.791 245.224 387.712 244.791 387.589 244.369L384.599 246.909Z" fill="black"/>
<path d="M382.059 240.39C381.925 240.623 381.732 240.817 381.499 240.952C381.266 241.087 381.002 241.158 380.733 241.158C380.463 241.158 380.199 241.087 379.966 240.952C379.733 240.817 379.54 240.623 379.406 240.39C380.362 238.389 379.642 238.198 379.586 236.703C379.489 235.838 379.629 234.962 379.991 234.17C380.353 233.378 380.924 232.699 381.643 232.207H383.183C388.724 233.354 382.059 240.39 382.059 240.39Z" fill="#263238"/>
<path d="M390.972 235.601C390.801 234.904 390.494 234.248 390.07 233.67C389.645 233.092 389.11 232.603 388.497 232.231C387.883 231.86 387.202 231.613 386.493 231.504C385.784 231.396 385.06 231.428 384.363 231.599C380.058 232.544 378.26 238.456 378.395 242.244C378.417 243.336 378.765 244.397 379.395 245.29C379.806 245.867 380.326 246.357 380.926 246.733C381.527 247.109 382.195 247.362 382.894 247.479C383.592 247.596 384.307 247.574 384.997 247.415C385.687 247.255 386.339 246.961 386.915 246.549C389.41 244.818 389.837 242.424 390.916 238.411C391.176 237.495 391.195 236.527 390.972 235.601Z" fill="#F7978D"/>
<path d="M380.283 242.581C381.667 242.303 383.076 242.178 384.487 242.21C384.369 242.781 384.047 243.289 383.582 243.641C383.117 243.992 382.54 244.163 381.958 244.121C381.554 244.149 381.154 244.017 380.845 243.755C380.537 243.492 380.343 243.119 380.306 242.716C380.306 242.716 380.294 242.626 380.283 242.581Z" fill="#263238"/>
<path d="M382.644 243.29C382.028 243.262 381.423 243.453 380.935 243.829C381.233 244.03 381.588 244.129 381.947 244.11C382.559 244.143 383.163 243.951 383.644 243.571C383.35 243.37 382.999 243.271 382.644 243.29Z" fill="#FF5652"/>
<path d="M380.429 242.548C380.461 242.67 380.527 242.78 380.618 242.868C380.709 242.955 380.823 243.015 380.946 243.042C381.864 243.021 382.779 242.916 383.678 242.728C383.825 242.705 383.963 242.644 384.079 242.551C384.196 242.459 384.286 242.337 384.341 242.199C383.029 242.203 381.721 242.319 380.429 242.548Z" fill="white"/>
<path d="M389.489 243.729C389.489 243.729 387.702 239.682 387.848 238.367C387.884 237.584 388.154 236.829 388.623 236.2C389.092 235.571 389.738 235.097 390.478 234.838L391.984 235.153C398.537 237.861 389.489 243.729 389.489 243.729Z" fill="#263238"/>
<path d="M381.283 241.356C381.007 241.379 380.728 241.34 380.468 241.243C380.207 241.146 379.972 240.992 379.777 240.794C380.606 240.059 381.332 239.215 381.935 238.287L381.283 241.356Z" fill="#FF5652"/>
<path d="M390.882 239.412C389.848 239.254 388.747 240.536 388.297 241.457C387.847 242.379 388.14 243.481 389.23 243.233C390.097 242.998 390.855 242.47 391.377 241.738C392.04 240.794 391.905 239.558 390.882 239.412Z" fill="#F7978D"/>
<path d="M384.318 238.197C384.093 238.197 383.857 238.433 383.801 238.737C383.745 239.04 383.869 239.333 384.082 239.366C384.296 239.4 384.498 239.164 384.588 238.838C384.678 238.512 384.532 238.287 384.318 238.197Z" fill="#263238"/>
<path d="M380.62 237.377C380.407 237.377 380.171 237.568 380.103 237.905C380.036 238.242 380.16 238.535 380.373 238.568C380.587 238.602 380.823 238.366 380.89 238.029C380.958 237.692 380.834 237.411 380.62 237.377Z" fill="#263238"/>
<path d="M381.441 236.095C381.413 236.109 381.382 236.116 381.351 236.116C381.32 236.116 381.289 236.109 381.261 236.095C381.021 236.015 380.765 235.99 380.514 236.023C380.263 236.056 380.022 236.146 379.811 236.286C379.775 236.322 379.727 236.342 379.676 236.342C379.626 236.342 379.577 236.322 379.542 236.286C379.51 236.246 379.492 236.197 379.492 236.146C379.492 236.095 379.51 236.045 379.542 236.005C379.803 235.826 380.102 235.71 380.416 235.665C380.73 235.62 381.05 235.648 381.351 235.747C381.399 235.765 381.439 235.8 381.462 235.846C381.485 235.892 381.489 235.945 381.475 235.994C381.471 236.03 381.46 236.064 381.441 236.095Z" fill="#263238"/>
<path d="M385.465 237.714C385.397 237.712 385.333 237.684 385.285 237.636C385.147 237.426 384.962 237.25 384.746 237.122C384.53 236.993 384.288 236.915 384.037 236.894C384.011 236.895 383.985 236.892 383.961 236.883C383.936 236.874 383.914 236.86 383.895 236.842C383.876 236.824 383.861 236.803 383.85 236.779C383.84 236.755 383.835 236.729 383.835 236.703C383.838 236.653 383.859 236.606 383.894 236.571C383.929 236.535 383.976 236.514 384.026 236.512C384.342 236.53 384.649 236.62 384.923 236.776C385.198 236.932 385.434 237.149 385.611 237.411C385.645 237.45 385.664 237.5 385.664 237.551C385.664 237.603 385.645 237.653 385.611 237.692C385.59 237.706 385.565 237.715 385.54 237.719C385.515 237.723 385.489 237.721 385.465 237.714Z" fill="#263238"/>
<path d="M380.575 234.354C380.372 233.623 380.308 232.861 380.384 232.106C380.499 231.729 380.693 231.381 380.953 231.085C381.212 230.788 381.532 230.55 381.89 230.386C383.019 230.02 384.235 230.02 385.364 230.386C385.636 230.428 385.899 230.519 386.139 230.656C386.262 230.723 386.365 230.822 386.436 230.943C386.507 231.064 386.545 231.202 386.544 231.342C386.525 231.481 386.469 231.613 386.382 231.724C386.295 231.835 386.18 231.92 386.049 231.971C385.791 232.095 383.801 232.567 382.902 232.893C382.019 233.184 381.221 233.686 380.575 234.354Z" fill="#263238"/>
<path d="M393.243 232.173C393.969 232.853 394.473 233.735 394.689 234.706C394.906 235.676 394.825 236.689 394.457 237.613C394.141 238.264 393.793 238.898 393.411 239.513L390.624 237.602C389.353 236.924 388.365 235.816 387.836 234.477C387.55 233.772 387.025 233.19 386.353 232.833C385.681 232.476 384.906 232.365 384.161 232.521C383.779 232.6 383.25 232.679 383.037 232.319C382.823 231.959 383.43 231.195 383.857 230.869C385.532 229.385 388.623 228.587 393.243 232.173Z" fill="#263238"/>
<path opacity="0.2" d="M387.78 234.286C386.746 232.488 385.431 232.319 383.689 232.589C383.702 232.374 383.758 232.163 383.855 231.97C383.951 231.776 384.086 231.605 384.251 231.465C385.622 230.341 387.488 232.983 387.78 234.286Z" fill="black"/>
<path d="M382.925 232.296C382.79 232.443 382.694 232.621 382.644 232.813C382.513 233.314 382.485 233.837 382.563 234.349C382.64 234.861 382.82 235.352 383.093 235.792C382.645 235.296 382.325 234.698 382.16 234.05C382.023 233.652 381.951 233.234 381.947 232.813C381.955 232.392 382.124 231.99 382.419 231.689C382.565 231.548 382.748 231.451 382.948 231.411C383.147 231.371 383.354 231.39 383.543 231.464C383.768 231.577 384.15 232.004 383.88 232.206C383.61 232.409 383.284 231.937 382.925 232.296Z" fill="#263238"/>
<path opacity="0.3" d="M380.429 198.679V312.709H255.542V168.814H373.865V198.679H380.429Z" fill="black"/>
<path d="M373.865 153.617H249.202V306.403H373.865V153.617Z" fill="white"/>
<path d="M373.854 153.617H249.191V162.654H373.854V153.617Z" fill="#263238"/>
<path opacity="0.1" d="M373.865 162.654H283.765V306.403H373.865V162.654Z" fill="black"/>
<path opacity="0.1" d="M313.495 166.094H288.194V195.363H313.495V166.094Z" fill="black"/>
<path opacity="0.1" d="M370.83 166.094H318.328V178.143H370.83V166.094Z" fill="black"/>
<path opacity="0.1" d="M370.83 183.312H318.328V248.302H370.83V183.312Z" fill="black"/>
<path opacity="0.1" d="M370.83 253.463H318.328V302.098H370.83V253.463Z" fill="black"/>
<path d="M318.328 206.557H283.473V217.752H318.328V206.557Z" fill="#407BFF"/>
<path d="M284.046 183.312H249.191V194.508H284.046V183.312Z" fill="#407BFF"/>
<path d="M370.83 264.117H318.328V269.928H370.83V264.117Z" fill="black"/>
<path d="M323.6 170.972L324.69 168.758L325.78 170.972L328.219 171.332L326.455 173.052L326.882 175.479L324.69 174.333L322.509 175.491L322.925 173.052L321.161 171.332L323.6 170.972Z" fill="#407BFF"/>
<path d="M333.547 170.972L334.626 168.758L335.728 170.972L338.167 171.332L336.402 173.052L336.818 175.479L334.637 174.333L332.457 175.491L332.873 173.052L331.097 171.332L333.547 170.972Z" fill="#407BFF"/>
<path d="M343.483 170.972L344.574 168.758L345.664 170.972L348.114 171.332L346.35 173.052L346.766 175.479L344.574 174.333L342.393 175.491L342.809 173.052L341.044 171.332L343.483 170.972Z" fill="#407BFF"/>
<path d="M353.431 170.972L354.521 168.758L355.611 170.972L358.05 171.332L356.286 173.052L356.713 175.479L354.521 174.333L352.34 175.491L352.756 173.052L350.98 171.332L353.431 170.972Z" fill="black"/>
<path d="M363.367 170.972L364.457 168.758L365.559 170.972L367.998 171.332L366.233 173.052L366.649 175.479L364.468 174.333L362.277 175.491L362.692 173.052L360.928 171.332L363.367 170.972Z" fill="black"/>
<path d="M342.708 189.045H322.06V190.169H342.708V189.045Z" fill="#263238"/>
<path d="M338.358 198.734H322.06V199.858H338.358V198.734Z" fill="#263238"/>
<path d="M338.358 207.188H322.06V208.311H338.358V207.188Z" fill="#263238"/>
<path d="M338.358 215.639H322.06V216.763H338.358V215.639Z" fill="#263238"/>
<path d="M338.358 224.104H322.06V225.228H338.358V224.104Z" fill="#263238"/>
<path d="M338.358 232.557H322.06V233.681H338.358V232.557Z" fill="#263238"/>
<path d="M338.358 241.02H322.06V242.144H338.358V241.02Z" fill="#263238"/>
<path d="M356.904 198.734H340.606V199.858H356.904V198.734Z" fill="#263238"/>
<path d="M356.904 207.188H340.606V208.311H356.904V207.188Z" fill="#263238"/>
<path d="M356.904 215.639H340.606V216.763H356.904V215.639Z" fill="#263238"/>
<path d="M356.904 224.104H340.606V225.228H356.904V224.104Z" fill="#263238"/>
<path d="M356.904 232.557H340.606V233.681H356.904V232.557Z" fill="#263238"/>
<path d="M356.904 241.02H340.606V242.144H356.904V241.02Z" fill="#263238"/>
<path d="M356.904 192.271H322.06V193.395H356.904V192.271Z" fill="#263238"/>
<path d="M356.904 259.037H322.06V260.161H356.904V259.037Z" fill="#263238"/>
<path d="M313.506 198.734H288.194V199.858H313.506V198.734Z" fill="#263238"/>
<path d="M313.506 223.35H288.194V224.474H313.506V223.35Z" fill="#263238"/>
<path d="M313.506 232.77H288.194V233.894H313.506V232.77Z" fill="#263238"/>
<path d="M313.506 242.188H288.194V243.311H313.506V242.188Z" fill="#263238"/>
<path d="M313.506 251.596H288.194V252.72H313.506V251.596Z" fill="#263238"/>
<path d="M313.506 261.016H288.194V262.14H313.506V261.016Z" fill="#263238"/>
<path d="M313.506 270.434H288.194V271.558H313.506V270.434Z" fill="#263238"/>
<path d="M313.506 279.842H288.194V280.966H313.506V279.842Z" fill="#263238"/>
<path d="M313.506 289.262H288.194V290.386H313.506V289.262Z" fill="#263238"/>
<path d="M300.85 202.365H288.194V203.489H300.85V202.365Z" fill="#263238"/>
<path d="M279.696 168.195H253.552V169.319H279.696V168.195Z" fill="#263238"/>
<path d="M279.696 175.467H253.552V176.591H279.696V175.467Z" fill="#263238"/>
<path d="M279.696 202.365H253.552V203.489H279.696V202.365Z" fill="#263238"/>
<path d="M288.261 195.262V191.699C296.18 188.866 304.821 188.775 312.798 191.44L313.562 191.699V195.262H288.261Z" fill="#263238"/>
<path d="M304.75 182.447L302.087 184.56L298.479 187.438C298.684 187.858 298.813 188.31 298.861 188.775C298.976 189.277 298.907 189.803 298.665 190.257C298.424 190.712 298.026 191.064 297.546 191.248C297.051 191.372 296.422 193.698 299.4 194.013C300.254 194.16 301.129 194.129 301.97 193.922C302.812 193.715 303.601 193.337 304.29 192.811C304.975 192.181 305.189 191.81 304.784 190.9C303.593 188.337 304.076 185.032 304.75 182.447Z" fill="#DD8C6A"/>
<path opacity="0.2" d="M299.355 186.729L301.693 184.594C301.688 184.68 301.688 184.766 301.693 184.852C301.723 185.226 301.723 185.602 301.693 185.976C301.507 186.68 301.153 187.327 300.662 187.864C300.17 188.4 299.556 188.809 298.872 189.056V188.786C298.815 188.354 298.702 187.93 298.535 187.527V187.46L299.355 186.729Z" fill="black"/>
<path d="M297.512 180.56C296.242 176.749 296.939 174.805 295.477 172.692C294.601 172.13 292.701 173.602 293.331 176.716C293.96 179.829 297.512 180.56 297.512 180.56Z" fill="#263238"/>
<path d="M305.413 177.771C304.997 181.908 304.919 184.336 302.738 186.325C299.445 189.326 294.421 187.101 293.623 182.953C292.892 179.165 293.746 173.051 297.883 171.713C299.334 171.233 300.917 171.35 302.283 172.037C303.649 172.724 304.686 173.926 305.166 175.377C305.419 176.148 305.503 176.965 305.413 177.771Z" fill="#DD8C6A"/>
<path d="M305.335 181.481L303.536 181.582L303.188 178.829L301.524 177.502L301.052 173.197C301.052 173.197 304.851 173.197 306.313 173.197C306.83 173.197 308.381 174.85 308.561 175.445C308.773 176.307 308.743 177.21 308.473 178.055C308.203 178.901 307.704 179.655 307.032 180.234C306.511 180.707 305.942 181.125 305.335 181.481Z" fill="#263238"/>
<path d="M305.391 174.905C304.334 175.456 303.019 174.849 301.884 174.534C300.754 174.182 299.606 173.889 298.445 173.658C297.427 173.448 296.368 173.615 295.466 174.13C295.029 174.399 294.705 174.817 294.554 175.307C294.403 175.797 294.436 176.326 294.646 176.794C294.011 176.462 293.467 175.98 293.061 175.39C292.655 174.8 292.399 174.12 292.316 173.408C292.233 172.697 292.325 171.976 292.584 171.309C292.843 170.641 293.261 170.047 293.803 169.578C294.84 168.746 296.126 168.287 297.456 168.274C298.774 168.267 300.09 168.406 301.378 168.69C303.098 168.993 305.571 168.971 307.156 169.701C308.74 170.432 308.594 173.231 305.391 174.905Z" fill="#263238"/>
<path d="M306.976 181.032C306.718 181.925 306.142 182.693 305.357 183.191C304.335 183.82 303.447 182.752 303.537 181.583C303.626 180.414 304.425 179.11 305.537 178.964C306.65 178.818 307.279 179.92 306.976 181.032Z" fill="#DD8C6A"/>
<path d="M298.849 179.064C298.849 179.412 298.669 179.693 298.444 179.705C298.22 179.716 298.051 179.446 298.028 179.098C298.006 178.749 298.22 178.457 298.444 178.457C298.669 178.457 298.849 178.716 298.849 179.064Z" fill="#263238"/>
<path d="M294.938 179.187C294.938 179.536 294.758 179.828 294.533 179.828C294.308 179.828 294.117 179.558 294.117 179.221C294.117 178.884 294.308 178.592 294.533 178.58C294.758 178.569 294.938 178.839 294.938 179.187Z" fill="#263238"/>
<path d="M296.197 179.402C295.905 180.338 295.489 181.23 294.96 182.055C295.172 182.18 295.41 182.256 295.655 182.277C295.9 182.298 296.146 182.265 296.377 182.179L296.197 179.402Z" fill="#FF5652"/>
<path d="M296.736 184.201C297.137 184.201 297.533 184.121 297.902 183.964C298.271 183.808 298.605 183.579 298.883 183.29C298.901 183.269 298.91 183.242 298.908 183.215C298.905 183.187 298.893 183.162 298.872 183.144C298.851 183.126 298.824 183.117 298.796 183.119C298.769 183.122 298.743 183.134 298.726 183.155C298.419 183.465 298.047 183.701 297.636 183.845C297.225 183.989 296.786 184.038 296.354 183.987C296.341 183.984 296.327 183.983 296.313 183.985C296.3 183.988 296.287 183.993 296.275 184C296.264 184.007 296.254 184.017 296.246 184.028C296.238 184.04 296.233 184.052 296.23 184.066C296.227 184.094 296.234 184.122 296.251 184.145C296.268 184.168 296.292 184.184 296.32 184.189C296.458 184.205 296.597 184.209 296.736 184.201Z" fill="#263238"/>
<path d="M299.614 177.816C299.647 177.825 299.682 177.825 299.715 177.816C299.734 177.798 299.75 177.776 299.76 177.752C299.771 177.728 299.776 177.702 299.776 177.676C299.776 177.649 299.771 177.623 299.76 177.599C299.75 177.575 299.734 177.553 299.715 177.535C299.522 177.281 299.269 177.08 298.978 176.948C298.688 176.817 298.369 176.76 298.051 176.782C297.997 176.788 297.946 176.814 297.911 176.856C297.875 176.898 297.857 176.952 297.86 177.007C297.863 177.033 297.871 177.059 297.884 177.083C297.897 177.106 297.914 177.127 297.935 177.144C297.956 177.16 297.98 177.173 298.006 177.18C298.031 177.188 298.058 177.19 298.085 177.187C298.334 177.176 298.582 177.224 298.809 177.327C299.035 177.431 299.234 177.587 299.389 177.782C299.418 177.811 299.455 177.83 299.496 177.836C299.536 177.842 299.578 177.835 299.614 177.816Z" fill="#263238"/>
<path d="M294.915 176.941C294.925 176.908 294.925 176.872 294.915 176.839C294.912 176.813 294.904 176.787 294.892 176.763C294.879 176.74 294.861 176.719 294.84 176.703C294.82 176.686 294.795 176.673 294.77 176.666C294.744 176.659 294.717 176.656 294.69 176.66C294.372 176.675 294.063 176.77 293.79 176.934C293.517 177.099 293.29 177.329 293.128 177.604C293.114 177.627 293.105 177.653 293.102 177.68C293.098 177.707 293.1 177.735 293.108 177.761C293.115 177.787 293.127 177.812 293.145 177.833C293.162 177.854 293.183 177.872 293.207 177.885C293.256 177.909 293.313 177.913 293.365 177.896C293.418 177.879 293.461 177.843 293.488 177.795C293.617 177.58 293.797 177.4 294.013 177.273C294.229 177.145 294.474 177.073 294.724 177.064C294.765 177.065 294.805 177.054 294.839 177.032C294.873 177.01 294.899 176.978 294.915 176.941Z" fill="#263238"/>
<path opacity="0.3" d="M328.073 229.848H203.174V373.742H328.073V229.848Z" fill="black"/>
<path d="M321.487 214.65H196.824V367.436H321.487V214.65Z" fill="white"/>
<path d="M321.487 214.65H196.824V223.687H321.487V214.65Z" fill="#263238"/>
<path opacity="0.1" d="M321.498 223.699H231.398V367.448H321.498V223.699Z" fill="black"/>
<path opacity="0.1" d="M261.128 227.139H235.827V256.408H261.128V227.139Z" fill="black"/>
<path opacity="0.1" d="M318.463 227.139H265.961V239.188H318.463V227.139Z" fill="black"/>
<path opacity="0.1" d="M318.463 244.346H265.961V309.335H318.463V244.346Z" fill="black"/>
<path opacity="0.1" d="M318.463 314.506H265.961V363.141H318.463V314.506Z" fill="black"/>
<path d="M265.961 267.59H231.106V278.785H265.961V267.59Z" fill="#407BFF"/>
<path d="M231.679 244.346H196.824V255.541H231.679V244.346Z" fill="#407BFF"/>
<path d="M318.463 325.15H265.961V330.961H318.463V325.15Z" fill="black"/>
<path d="M271.233 232.017L272.323 229.803L273.413 232.017L275.863 232.365L274.088 234.085L274.515 236.524L272.323 235.378L270.142 236.524L270.558 234.096L268.793 232.377L271.233 232.017Z" fill="#407BFF"/>
<path d="M281.18 232.017L282.27 229.803L283.36 232.017L285.799 232.365L284.035 234.085L284.451 236.524L282.27 235.378L280.09 236.524L280.505 234.096L278.729 232.377L281.18 232.017Z" fill="#407BFF"/>
<path d="M291.116 232.017L292.206 229.803L293.296 232.017L295.747 232.365L293.982 234.085L294.398 236.524L292.217 235.378L290.026 236.524L290.441 234.096L288.677 232.377L291.116 232.017Z" fill="#407BFF"/>
<path d="M301.064 232.017L302.154 229.803L303.244 232.017L305.683 232.365L303.919 234.085L304.334 236.524L302.154 235.378L299.973 236.524L300.389 234.096L298.625 232.377L301.064 232.017Z" fill="#407BFF"/>
<path d="M311 232.017L312.09 229.803L313.191 232.017L315.631 232.365L313.866 234.085L314.282 236.524L312.101 235.378L309.921 236.524L310.325 234.096L308.561 232.377L311 232.017Z" fill="black"/>
<path d="M290.341 250.09H269.693V251.214H290.341V250.09Z" fill="#263238"/>
<path d="M285.991 259.768H269.693V260.892H285.991V259.768Z" fill="#263238"/>
<path d="M285.991 268.232H269.693V269.356H285.991V268.232Z" fill="#263238"/>
<path d="M285.991 276.684H269.693V277.808H285.991V276.684Z" fill="#263238"/>
<path d="M285.991 285.137H269.693V286.261H285.991V285.137Z" fill="#263238"/>
<path d="M285.991 293.6H269.693V294.724H285.991V293.6Z" fill="#263238"/>
<path d="M285.991 302.053H269.693V303.177H285.991V302.053Z" fill="#263238"/>
<path d="M304.548 259.768H288.25V260.892H304.548V259.768Z" fill="#263238"/>
<path d="M304.548 268.232H288.25V269.356H304.548V268.232Z" fill="#263238"/>
<path d="M304.548 276.684H288.25V277.808H304.548V276.684Z" fill="#263238"/>
<path d="M304.548 285.137H288.25V286.261H304.548V285.137Z" fill="#263238"/>
<path d="M304.548 293.6H288.25V294.724H304.548V293.6Z" fill="#263238"/>
<path d="M304.548 302.053H288.25V303.177H304.548V302.053Z" fill="#263238"/>
<path d="M304.537 253.316H269.693V254.44H304.537V253.316Z" fill="#263238"/>
<path d="M304.537 320.07H269.693V321.194H304.537V320.07Z" fill="#263238"/>
<path d="M261.139 259.768H235.827V260.892H261.139V259.768Z" fill="#263238"/>
<path d="M261.139 284.395H235.827V285.519H261.139V284.395Z" fill="#263238"/>
<path d="M261.139 293.814H235.827V294.938H261.139V293.814Z" fill="#263238"/>
<path d="M261.139 303.221H235.827V304.345H261.139V303.221Z" fill="#263238"/>
<path d="M261.139 312.641H235.827V313.765H261.139V312.641Z" fill="#263238"/>
<path d="M261.139 322.049H235.827V323.173H261.139V322.049Z" fill="#263238"/>
<path d="M261.139 331.467H235.827V332.591H261.139V331.467Z" fill="#263238"/>
<path d="M261.139 340.887H235.827V342.011H261.139V340.887Z" fill="#263238"/>
<path d="M261.139 350.295H235.827V351.419H261.139V350.295Z" fill="#263238"/>
<path d="M248.483 263.398H235.827V264.522H248.483V263.398Z" fill="#263238"/>
<path d="M227.329 229.24H201.185V230.364H227.329V229.24Z" fill="#263238"/>
<path d="M227.329 236.5H201.185V237.624H227.329V236.5Z" fill="#263238"/>
<path d="M227.329 263.398H201.185V264.522H227.329V263.398Z" fill="#263238"/>
<path d="M235.827 256.407V252.833C243.752 250.012 252.392 249.921 260.375 252.574L261.139 252.833V256.407H235.827Z" fill="#407BFF"/>
<path d="M246.268 230.824C245.462 230.598 244.615 230.564 243.793 230.724C242.972 230.884 242.199 231.234 241.536 231.745C240.209 232.776 239.188 234.147 238.58 235.713C238.348 236.117 238.227 236.574 238.227 237.04C238.227 237.505 238.348 237.962 238.58 238.366C239.176 239.119 240.322 239.074 241.289 238.962C242.784 236.129 244.56 233.544 246.268 230.824Z" fill="#263238"/>
<path d="M245.381 247.909C246.1 249.64 246.505 251.573 244.257 253.124C243.794 253.444 243.453 253.911 243.29 254.45C243.054 255.327 243.357 256.316 246.606 255.305C251.304 253.843 251.619 251 251.619 251C249.618 249.819 249.371 244.953 249.551 242.232L245.381 247.909Z" fill="#FFB573"/>
<path opacity="0.2" d="M248.404 246.076C248.404 247.268 246.853 248.763 245.796 249.246C245.694 248.783 245.548 248.332 245.358 247.897L247.853 244.525C248.145 244.998 248.332 245.526 248.404 246.076Z" fill="black"/>
<path d="M252.158 235.691C251.935 234.951 251.567 234.263 251.077 233.665C250.587 233.067 249.984 232.572 249.302 232.208C248.62 231.843 247.873 231.617 247.104 231.542C246.335 231.466 245.558 231.543 244.819 231.769C240.424 233.073 239.199 239.412 239.704 243.38C240.278 247.819 245.414 249.595 249.022 246.561C251.439 244.537 251.641 242.705 252.327 238.412C252.48 237.504 252.422 236.573 252.158 235.691Z" fill="#FFB573"/>
<path d="M242.335 242.054C242.105 242.087 241.871 242.071 241.649 242.007C241.426 241.944 241.219 241.833 241.042 241.684C241.666 241.012 242.192 240.255 242.604 239.436L242.335 242.054Z" fill="#ED893E"/>
<path d="M245.639 242.671C245.656 242.651 245.666 242.625 245.666 242.598C245.666 242.572 245.656 242.546 245.639 242.525C245.63 242.515 245.618 242.508 245.606 242.502C245.593 242.497 245.58 242.494 245.566 242.494C245.552 242.494 245.539 242.497 245.526 242.502C245.514 242.508 245.502 242.515 245.493 242.525C245.195 242.848 244.824 243.094 244.412 243.245C243.999 243.395 243.557 243.445 243.121 243.391C243.094 243.393 243.068 243.404 243.048 243.422C243.027 243.441 243.014 243.465 243.009 243.492C243.008 243.518 243.017 243.544 243.033 243.564C243.05 243.585 243.073 243.599 243.099 243.604C243.267 243.616 243.436 243.616 243.605 243.604C244.378 243.571 245.109 243.236 245.639 242.671Z" fill="#263238"/>
<path d="M242.278 232.285C243.068 232.231 243.855 232.416 244.537 232.818C245.219 233.219 245.764 233.817 246.1 234.533C246.369 235.234 246.565 235.961 246.684 236.703C246.805 237.449 247.128 238.149 247.617 238.726C247.869 239.004 248.203 239.195 248.571 239.272C248.938 239.349 249.321 239.307 249.663 239.153C249.866 239.813 250.242 240.407 250.752 240.874C251.262 241.34 251.887 241.662 252.563 241.806C251.596 243.211 250.394 244.683 249.427 246.088C249.775 247.212 249.809 247.392 250.158 248.482C251.362 248.097 252.479 247.478 253.443 246.66C254.408 245.842 255.201 244.842 255.778 243.716C256.902 241.468 257.149 238.647 255.013 238.58C255.766 237.062 254.384 233.881 253.249 232.622C252.193 231.676 250.937 230.982 249.573 230.592C248.21 230.203 246.777 230.128 245.381 230.374C244.155 230.629 243.057 231.305 242.278 232.285Z" fill="#263238"/>
<path d="M253.35 241.446C253.388 241.072 253.277 240.699 253.041 240.406C252.805 240.114 252.464 239.926 252.091 239.883C250.967 239.793 250.191 241.086 249.967 242.019C249.742 242.952 250.304 243.975 251.36 243.615C252.152 243.339 252.802 242.761 253.17 242.008C253.27 241.836 253.331 241.644 253.35 241.446Z" fill="#FFB573"/>
<path d="M246.482 237.311C246.515 237.319 246.55 237.319 246.583 237.311C246.621 237.269 246.642 237.215 246.642 237.159C246.642 237.103 246.621 237.048 246.583 237.007C246.338 236.692 246.018 236.443 245.654 236.28C245.289 236.117 244.891 236.047 244.492 236.074C244.465 236.077 244.438 236.085 244.413 236.099C244.389 236.112 244.368 236.131 244.351 236.153C244.334 236.175 244.322 236.2 244.315 236.228C244.309 236.255 244.308 236.283 244.313 236.31C244.315 236.337 244.323 236.363 244.336 236.386C244.349 236.41 244.366 236.43 244.387 236.447C244.408 236.464 244.432 236.476 244.458 236.484C244.484 236.491 244.511 236.493 244.537 236.49C244.866 236.478 245.192 236.542 245.491 236.679C245.789 236.816 246.052 237.02 246.257 237.277C246.288 237.303 246.325 237.32 246.365 237.326C246.404 237.332 246.445 237.327 246.482 237.311Z" fill="#263238"/>
<path d="M239.974 237.535C240.009 237.525 240.04 237.506 240.064 237.478C240.265 237.219 240.525 237.01 240.822 236.87C241.119 236.729 241.444 236.66 241.773 236.669C241.801 236.672 241.829 236.67 241.856 236.662C241.883 236.654 241.909 236.641 241.931 236.623C241.952 236.605 241.971 236.583 241.984 236.558C241.998 236.533 242.006 236.506 242.009 236.478C242.009 236.421 241.989 236.365 241.952 236.322C241.915 236.279 241.863 236.25 241.806 236.242C241.408 236.227 241.012 236.307 240.65 236.475C240.289 236.643 239.972 236.894 239.727 237.209C239.69 237.242 239.666 237.288 239.661 237.338C239.655 237.388 239.669 237.437 239.698 237.478C239.727 237.518 239.771 237.547 239.82 237.557C239.869 237.568 239.92 237.56 239.963 237.535H239.974Z" fill="#263238"/>
<path d="M245.448 238.377C245.448 238.759 245.212 239.074 244.953 239.063C244.695 239.051 244.504 238.726 244.526 238.332C244.549 237.939 244.762 237.646 245.01 237.646C245.257 237.646 245.459 237.984 245.448 238.377Z" fill="#263238"/>
<path d="M241.536 238.703C241.536 239.074 241.312 239.366 241.064 239.355C240.817 239.344 240.648 239.04 240.66 238.658C240.671 238.276 240.885 237.995 241.132 238.006C241.379 238.017 241.559 238.287 241.536 238.703Z" fill="#263238"/>
<path d="M241.233 238.031L240.356 237.738C240.356 237.738 240.784 238.458 241.233 238.031Z" fill="#263238"/>
<path d="M245.122 237.682L244.2 237.367C244.2 237.367 244.65 238.12 245.122 237.682Z" fill="#263238"/>
<path d="M101.879 281.001C93.1797 281.001 93.1797 273.549 93.1797 273.549L167.083 194.104L167.465 192.385L171.702 196.33C171.67 196.389 171.632 196.446 171.59 196.499C171.354 196.937 106.78 281.001 101.879 281.001Z" fill="#263238"/>
<g opacity="0.5">
<path opacity="0.4" d="M213.144 175.951C203.444 190.946 187.202 202.455 176.985 197.116C177.037 197.067 177.076 197.005 177.098 196.936L171.478 193.879C167.712 190.507 165.588 185.55 165.048 179.728C164.194 170.736 167.038 159.856 173.242 149.773C184.179 131.992 202.006 124.09 210.233 129.002C211.578 129.805 212.876 130.683 214.122 131.632H214.178C215.267 132.348 216.3 133.144 217.269 134.015C217.728 134.465 218.142 134.958 218.506 135.487C220.601 138.543 221.793 142.127 221.945 145.828C222.71 154.55 219.821 165.667 213.144 175.951Z" fill="white"/>
</g>
<path opacity="0.2" d="M221.956 145.614L171.489 193.609C167.723 190.237 165.599 185.28 165.048 179.458V179.368L218.483 135.273C220.585 138.328 221.788 141.91 221.956 145.614Z" fill="white"/>
<path d="M216.988 177.48C229.251 157.675 227.723 134.465 213.515 125.675C199.308 116.885 177.873 125.855 165.599 145.649C153.651 164.959 154.786 187.45 167.948 196.734C168.308 197.015 168.679 197.24 169.072 197.487C170.608 198.442 172.258 199.197 173.984 199.735C187.843 204.187 206.052 195.138 216.988 177.48ZM175.85 196.004C175.063 195.787 174.308 195.469 173.602 195.06C173.491 195.015 173.386 194.958 173.287 194.891L172.815 194.588L172.68 194.498C172.004 194.069 171.369 193.58 170.781 193.036C162.058 185.101 162.913 166.06 173.242 149.504C184.246 131.756 202.253 123.899 209.84 128.384C211.074 129.12 212.267 129.923 213.414 130.789C214.001 131.196 214.544 131.663 215.033 132.183C221.777 139.231 219.697 156.563 209.581 172.894C199.465 189.226 185.179 198.724 175.85 196.004Z" fill="#263238"/>
<g opacity="0.4">
<path opacity="0.4" d="M213.111 175.66C203.399 190.688 187.169 202.198 176.952 196.836C177.004 196.787 177.042 196.725 177.064 196.656L175.861 195.993C185.168 198.724 199.6 189.114 209.649 172.917C219.697 156.721 221.878 139.287 215.089 132.229C214.867 131.986 214.63 131.757 214.381 131.543C215.404 132.217 216.373 132.969 217.281 133.791C217.738 134.231 218.148 134.717 218.506 135.241C220.589 138.3 221.787 141.874 221.968 145.57C222.653 154.27 219.776 165.409 213.111 175.66Z" fill="black"/>
</g>
<path d="M72.4984 351.431C72.9368 354.376 75.8704 356.197 78.6467 357.343C83.6111 359.401 88.8919 360.591 94.2591 360.861C98.3259 346.437 101.161 331.693 102.734 316.789C89.4821 325.017 70.1942 336.009 72.4984 351.431Z" fill="#263238"/>
<path opacity="0.2" d="M72.4984 351.431C72.9368 354.376 75.8704 356.197 78.6467 357.343C83.6111 359.401 88.8919 360.591 94.2591 360.861C98.3259 346.437 101.161 331.693 102.734 316.789C89.4821 325.017 70.1942 336.009 72.4984 351.431Z" fill="black"/>
<path d="M139.601 173.456C140.017 173.388 140.467 173.838 140.59 174.479C140.714 175.119 140.478 175.726 140.051 175.794C139.624 175.861 139.185 175.423 139.062 174.771C138.938 174.119 139.174 173.535 139.601 173.456Z" fill="#263238"/>
<path d="M140.736 181.998C141.285 182.039 141.835 181.959 142.35 181.765C142.864 181.571 143.33 181.267 143.715 180.874C142.119 179.421 140.724 177.762 139.567 175.939L140.736 181.998Z" fill="#B74D3C"/>
<path d="M136.285 171.58C136.594 171.198 136.99 170.896 137.44 170.701C137.89 170.505 138.381 170.421 138.871 170.456H139.005C139.108 170.456 139.206 170.416 139.28 170.344C139.353 170.273 139.396 170.176 139.399 170.073C139.4 170.022 139.392 169.97 139.373 169.922C139.355 169.874 139.327 169.829 139.292 169.792C139.256 169.754 139.214 169.724 139.166 169.703C139.119 169.682 139.068 169.67 139.017 169.669C138.41 169.6 137.795 169.678 137.224 169.895C136.654 170.112 136.143 170.462 135.735 170.916C135.702 170.949 135.677 170.988 135.659 171.03C135.642 171.072 135.633 171.118 135.633 171.164C135.63 171.215 135.638 171.266 135.655 171.314C135.672 171.363 135.699 171.407 135.733 171.445C135.768 171.482 135.81 171.513 135.856 171.534C135.903 171.555 135.953 171.567 136.004 171.568C136.094 171.606 136.193 171.61 136.285 171.58Z" fill="#263238"/>
<path d="M131.205 210.695C120.133 210.582 118.56 204.524 118.56 204.524C121.932 201.377 122.213 195.464 121.617 190.182C122.48 191.45 123.574 192.544 124.843 193.408C125.999 194.228 127.316 194.796 128.706 195.075C130.096 195.354 131.53 195.337 132.913 195.026C132.961 195.036 133.011 195.036 133.059 195.026C133.026 195.128 133.003 195.234 132.992 195.341C132.239 199.556 132.733 204.074 137.139 205.457C137.128 205.446 143.4 210.818 131.205 210.695Z" fill="#CB7A63"/>
<path d="M133.397 193.43C133.254 193.94 133.141 194.458 133.06 194.981C133.011 194.991 132.962 194.991 132.913 194.981C131.53 195.292 130.096 195.309 128.706 195.03C127.316 194.751 126 194.183 124.843 193.363C123.575 192.5 122.48 191.405 121.617 190.137C121.471 188.799 121.258 187.496 121.033 186.293L132.947 193.127L133.397 193.43Z" fill="#CB7A63"/>
<path d="M115.176 205.468C115.176 205.468 117.031 200.107 119.672 198.454C122.314 196.802 133.902 198.814 135.701 199.578C137.499 200.343 139.252 204.546 139.252 204.546L115.176 205.468Z" fill="#263238"/>
<path opacity="0.5" d="M115.176 205.468C115.176 205.468 117.031 200.107 119.672 198.454C122.314 196.802 133.902 198.814 135.701 199.578C137.499 200.343 139.252 204.546 139.252 204.546L115.176 205.468Z" fill="white"/>
<path d="M141.512 184.561C141.439 186.461 140.885 188.311 139.902 189.939C138.919 191.567 137.539 192.918 135.892 193.868H135.824C134.977 194.387 134.05 194.767 133.082 194.992C133.033 195.001 132.984 195.001 132.936 194.992C131.552 195.303 130.119 195.319 128.728 195.04C127.338 194.761 126.022 194.193 124.865 193.373C123.597 192.51 122.503 191.416 121.639 190.147C119.526 187.135 118.706 183.145 117.267 177.525C116.781 175.708 116.767 173.796 117.225 171.972C117.684 170.148 118.6 168.471 119.887 167.099C121.174 165.727 122.79 164.707 124.581 164.133C126.373 163.56 128.281 163.453 130.126 163.823C138.488 165.532 141.838 177.086 141.512 184.561Z" fill="#CB7A63"/>
<path opacity="0.2" d="M135.802 193.879C134.954 194.399 134.028 194.779 133.06 195.003L133.464 190.08C133.464 190.08 135.218 193.879 135.802 193.879Z" fill="black"/>
<path d="M115.176 174.626C114.052 176.874 111.535 179.425 110.467 181.662C109.777 182.792 109.448 184.106 109.523 185.428C109.623 186.115 109.989 186.735 110.542 187.155C111.094 187.575 111.79 187.762 112.479 187.676C111.355 189.272 112.187 191.902 113.906 192.992C114.794 193.523 115.838 193.731 116.862 193.582C117.886 193.432 118.827 192.934 119.526 192.172C120.65 193.385 121.493 194.285 123.202 194.307C124.037 194.315 124.866 194.156 125.638 193.837C126.411 193.518 127.111 193.048 127.698 192.453C128.47 193.277 129.477 193.845 130.582 194.08C131.688 194.315 132.838 194.206 133.88 193.768C134.866 193.3 135.661 192.507 136.131 191.523C136.602 190.539 136.72 189.422 136.465 188.361C135.853 186.506 135.567 184.559 135.622 182.606C135.622 182.606 138.039 179.054 137.049 176.908L135.993 170.164C134.108 168.734 131.781 168.01 129.417 168.118C127.061 168.23 124.742 168.747 122.561 169.647C119.515 170.849 116.491 171.861 115.176 174.626Z" fill="#263238"/>
<path d="M133.554 174.221C135.858 174.952 137.005 178.414 137.061 180.594C137.128 183 135.487 184.483 133.419 182.842C131.867 181.566 130.774 179.817 130.306 177.863C129.789 175.525 131.239 173.536 133.554 174.221Z" fill="#CB7A63"/>
<path d="M111.703 458.93C110.579 458.874 109.523 458.66 109.219 458.143C109.136 458.005 109.099 457.844 109.116 457.684C109.132 457.524 109.2 457.373 109.309 457.255C109.387 457.137 109.49 457.037 109.61 456.961C109.73 456.885 109.865 456.836 110.006 456.817C111.478 456.502 114.345 458.379 114.502 458.458C114.535 458.481 114.56 458.514 114.574 458.552C114.588 458.591 114.59 458.632 114.581 458.671C114.573 458.714 114.551 458.753 114.518 458.782C114.486 458.81 114.444 458.827 114.401 458.829C113.506 458.941 112.604 458.975 111.703 458.93ZM110.489 457.188C110.359 457.171 110.226 457.171 110.096 457.188C110.008 457.199 109.923 457.229 109.848 457.276C109.772 457.322 109.707 457.384 109.657 457.457C109.5 457.705 109.534 457.817 109.657 457.907C110.006 458.48 112.198 458.604 113.827 458.48C112.826 457.836 111.707 457.396 110.534 457.188H110.489Z" fill="#407BFF"/>
<path d="M114.345 458.807H114.255C113.254 458.278 111.366 456.334 111.625 455.345C111.625 455.109 111.872 454.839 112.445 454.805C112.65 454.794 112.855 454.824 113.048 454.893C113.241 454.963 113.419 455.07 113.569 455.21C114.637 456.188 114.592 458.514 114.592 458.582C114.587 458.618 114.574 458.653 114.555 458.684C114.536 458.715 114.51 458.741 114.48 458.762C114.442 458.793 114.394 458.809 114.345 458.807ZM112.558 455.221H112.4C112.029 455.221 111.984 455.39 111.973 455.435C111.827 456.019 113.097 457.548 114.097 458.256C114.09 457.277 113.776 456.326 113.198 455.536C113.111 455.436 113.004 455.354 112.884 455.296C112.764 455.238 112.634 455.205 112.501 455.199L112.558 455.221Z" fill="#407BFF"/>
<path d="M124.911 439.215L116.301 438.754L115.233 458.649L123.888 459.11L124.911 439.215Z" fill="#CB7A63"/>
<path d="M113.221 458.211C107.005 461.493 105.184 461.583 98.238 462.707C96.7206 462.954 97.3388 466.596 100.902 466.787C106.803 467.113 107.444 466.866 112.468 467.135C116.773 467.371 121.707 467.832 125.124 468.068C125.228 468.085 125.335 468.085 125.439 468.068C125.78 468.021 126.089 467.841 126.3 467.568C126.51 467.294 126.604 466.949 126.563 466.607L125.585 458.84C125.56 458.673 125.478 458.519 125.353 458.405C125.228 458.29 125.068 458.222 124.899 458.211L115.424 457.705C114.657 457.673 113.896 457.847 113.221 458.211Z" fill="#263238"/>
<path opacity="0.2" d="M124.921 439.226L124.281 451.242L115.637 450.781L116.3 438.766L124.921 439.226Z" fill="black"/>
<path d="M136.892 265.736C136.892 265.736 136.162 323.139 134.217 350.194C132.396 375.394 126.765 448.847 126.765 448.847L112.153 448.049C112.153 448.049 109.084 372.584 108.781 346.889C108.511 322.543 107.32 264.635 107.32 264.635L136.892 265.736Z" fill="#407BFF"/>
<path d="M136.892 265.736C136.892 265.736 136.162 323.139 134.217 350.194C132.396 375.394 126.765 448.847 126.765 448.847L112.153 448.049C112.153 448.049 109.084 372.584 108.781 346.889C108.511 322.543 107.32 264.635 107.32 264.635L136.892 265.736Z" fill="#263238"/>
<path opacity="0.6" d="M136.892 265.736C136.892 265.736 136.162 323.139 134.217 350.194C132.396 375.394 126.765 448.847 126.765 448.847L112.153 448.049C112.153 448.049 109.084 372.584 108.781 346.889C108.511 322.543 107.32 264.635 107.32 264.635L136.892 265.736Z" fill="white"/>
<path d="M129.407 443.846L128.417 449.174L110.625 448.218C110.625 448.218 110.332 442.16 110.4 442.16L129.407 443.846Z" fill="#263238"/>
<g opacity="0.5">
<path d="M129.407 443.846L128.417 449.174L110.625 448.218C110.625 448.218 110.332 442.16 110.4 442.16L129.407 443.846Z" fill="white"/>
</g>
<path d="M200.736 457.323C200.634 456.199 200.679 455.131 201.14 454.715C201.262 454.608 201.413 454.541 201.574 454.523C201.735 454.504 201.897 454.536 202.039 454.614C202.163 454.673 202.273 454.756 202.364 454.858C202.455 454.961 202.524 455.08 202.568 455.21C203.096 456.581 201.68 459.807 201.612 459.964C201.597 460.005 201.569 460.039 201.533 460.061C201.496 460.084 201.453 460.093 201.41 460.088C201.369 460.085 201.329 460.069 201.297 460.043C201.265 460.017 201.242 459.982 201.23 459.942C200.992 459.084 200.827 458.208 200.736 457.323ZM202.287 455.761C202.298 455.63 202.298 455.498 202.287 455.367C202.264 455.285 202.223 455.208 202.167 455.144C202.11 455.08 202.04 455.029 201.961 454.996C201.691 454.884 201.567 454.996 201.511 455.053C200.994 455.513 201.185 457.683 201.567 459.256C202.034 458.148 202.289 456.963 202.32 455.761H202.287Z" fill="#407BFF"/>
<path d="M201.196 459.884C201.191 459.858 201.191 459.832 201.196 459.806C201.567 458.682 203.23 456.434 204.22 456.434C204.456 456.434 204.759 456.58 204.86 457.119C204.904 457.323 204.905 457.534 204.865 457.739C204.824 457.944 204.742 458.138 204.624 458.311C203.837 459.558 201.522 460.019 201.432 460.042C201.397 460.048 201.361 460.045 201.327 460.034C201.294 460.022 201.264 460.001 201.241 459.974C201.216 459.951 201.2 459.919 201.196 459.884ZM204.467 457.389V457.254C204.467 456.894 204.242 456.883 204.197 456.894C203.601 456.894 202.275 458.434 201.736 459.57C202.711 459.355 203.599 458.854 204.287 458.131C204.443 457.912 204.522 457.647 204.512 457.378L204.467 457.389Z" fill="#407BFF"/>
<path d="M194.88 440.439L186.573 441.957L192.991 461.458L201.365 459.93L194.88 440.439Z" fill="#CB7A63"/>
<path d="M203.287 458.592C205.804 461.031 207.131 462.279 213.92 463.627C215.415 463.92 214.425 467.55 210.862 467.629C204.973 467.764 208.199 467.415 203.174 467.528C198.881 467.618 193.946 467.932 190.529 468.067C190.414 468.084 190.296 468.084 190.181 468.067C190.02 468.033 189.867 467.966 189.732 467.872C189.597 467.778 189.482 467.658 189.394 467.518C189.306 467.379 189.247 467.224 189.22 467.061C189.193 466.899 189.199 466.732 189.237 466.572L190.968 458.817C191.003 458.646 191.097 458.493 191.232 458.382C191.366 458.272 191.535 458.211 191.709 458.21L201.151 457.996C201.529 457.947 201.912 457.975 202.279 458.077C202.646 458.18 202.989 458.355 203.287 458.592Z" fill="#263238"/>
<path opacity="0.2" d="M194.891 440.451L198.218 450.466L189.878 451.995L186.573 441.957L194.891 440.451Z" fill="black"/>
<path opacity="0.3" d="M136.645 303.481C135.521 322.926 134.543 346.193 133.745 359.13C133.745 359.759 133.655 360.4 133.632 361.097C130.036 340.573 124.64 307.145 134.588 303.694C135.257 303.51 135.952 303.438 136.645 303.481Z" fill="black"/>
<path d="M111.276 268.401C111.276 268.401 113.21 288.397 116.323 297.175C120.729 309.595 126.226 313.597 130.452 321.026C137.904 334.121 142.051 345.372 147.076 355.792C162.812 388.388 184.595 445.79 184.595 445.79L200.331 444.666L144.592 267.445L111.276 268.401Z" fill="#263238"/>
<path opacity="0.6" d="M111.276 268.401C111.276 268.401 113.21 288.397 116.323 297.175C120.729 309.595 126.226 313.597 130.452 321.026C137.904 334.121 142.051 345.372 147.076 355.792C162.812 388.388 184.595 445.79 184.595 445.79L200.331 444.666L144.592 267.445L111.276 268.401Z" fill="white"/>
<path d="M203.118 441.328L203.309 446.735L185.022 449.466C185.022 449.466 183.37 443.621 183.437 443.621L203.118 441.328Z" fill="#263238"/>
<g opacity="0.5">
<path d="M203.118 441.328L203.309 446.735L185.022 449.466C185.022 449.466 183.37 443.621 183.437 443.621L203.118 441.328Z" fill="white"/>
</g>
<path d="M116.02 253.54C115.255 255.451 113.457 259.262 110.703 261.51C110.394 261.764 110.023 261.932 109.628 261.995C109.233 262.058 108.828 262.015 108.455 261.869C108.455 261.869 103.611 258.879 103.229 257.531C103.212 257.449 103.212 257.365 103.229 257.283L104.431 251.663L104.577 251.607C105.454 251.315 110.197 249.865 112.198 250.674L115.334 251.933C115.495 251.979 115.644 252.06 115.77 252.171C115.895 252.282 115.995 252.419 116.06 252.573C116.126 252.727 116.157 252.894 116.149 253.061C116.142 253.229 116.098 253.392 116.02 253.54Z" fill="#CB7A63"/>
<path d="M108.118 218.956L91.6737 234.973L104.611 251.653L104.465 251.709L103.262 257.329C103.246 257.411 103.246 257.495 103.262 257.577C102.447 257.877 101.567 257.959 100.711 257.813C100.711 257.813 76.1738 237.884 77.5563 234.445C78.873 231.722 80.3752 229.093 82.0523 226.577L82.2209 226.318C84.3902 222.721 98.0356 202.298 108.298 202.411C116.413 202.478 115.975 211.819 108.118 218.956Z" fill="#407BFF"/>
<path opacity="0.5" d="M108.118 218.956L91.6737 234.973L104.611 251.653L104.465 251.709L103.262 257.329C103.246 257.411 103.246 257.495 103.262 257.577C102.447 257.877 101.567 257.959 100.711 257.813C100.711 257.813 75.8702 240.762 77.5562 234.445C78.0283 232.635 80.1864 229.454 82.0522 226.577L82.2208 226.318C84.3901 222.721 98.0355 202.298 108.298 202.411C116.413 202.478 115.975 211.819 108.118 218.956Z" fill="black"/>
<path d="M103.273 257.531C103.257 257.449 103.257 257.365 103.273 257.284L104.476 251.664L104.622 251.607L105.027 251.776C105.027 251.776 106.331 256.362 103.273 257.531Z" fill="#263238"/>
<path d="M184.494 352.329C159.226 358.478 161.721 337.717 126.99 351.205C116.761 355.184 110.815 344.911 105.285 343.225C94.2589 339.853 81.996 340.887 72.2847 347.103C79.2884 318.731 90.5998 291.601 105.825 266.658C106.623 260.791 108.961 248.382 102.61 213.673C101.486 207.3 108.05 201.837 114.513 201.5L118.593 201.196C124.763 200.906 130.944 200.97 137.106 201.387C139.163 201.59 141.163 201.904 142.939 202.242C145.245 202.673 147.366 203.795 149.02 205.459C150.674 207.124 151.783 209.251 152.201 211.559C153.3 217.801 153.677 224.149 153.325 230.476C153.078 237.074 152.313 245.695 150.74 257.61C150.346 260.6 149.897 263.803 149.391 267.242C149.391 267.242 165.959 307.021 184.494 352.329Z" fill="#407BFF"/>
<path opacity="0.5" d="M184.494 352.329C159.226 358.478 161.721 337.717 126.99 351.205C116.761 355.184 110.815 344.911 105.285 343.225C94.2589 339.853 81.996 340.887 72.2847 347.103C79.2884 318.731 90.5998 291.601 105.825 266.658C106.623 260.791 108.961 248.382 102.61 213.673C101.486 207.3 108.05 201.837 114.513 201.5L118.593 201.196C124.763 200.906 130.944 200.97 137.106 201.387C139.163 201.59 141.163 201.904 142.939 202.242C145.245 202.673 147.366 203.795 149.02 205.459C150.674 207.124 151.783 209.251 152.201 211.559C153.3 217.801 153.677 224.149 153.325 230.476C153.078 237.074 152.313 245.695 150.74 257.61C150.346 260.6 149.897 263.803 149.391 267.242C149.391 267.242 165.959 307.021 184.494 352.329Z" fill="black"/>
<path opacity="0.2" d="M153.325 230.5C153.078 237.097 152.314 245.719 150.74 257.633C149.773 247.202 148.054 236.963 141.872 216.045L153.112 219.63C153.336 223.104 153.37 226.802 153.325 230.5Z" fill="black"/>
<path d="M147.739 185.09C147.612 184.751 147.383 184.46 147.082 184.259C146.782 184.057 146.426 183.955 146.064 183.966C143.693 183.775 142.456 183.595 140.242 184.472C140.075 184.528 139.927 184.629 139.815 184.764C139.752 184.901 139.721 185.051 139.725 185.202C139.725 186.517 139.646 187.833 139.601 189.136C139.544 189.428 139.584 189.73 139.716 189.997C139.848 190.263 140.065 190.478 140.332 190.609C141.546 191.463 147.289 194.385 147.289 194.385C148.413 194.509 150.841 192.34 151.853 191.767L147.739 185.09Z" fill="#CB7A63"/>
<path d="M145.727 194.532L152.179 191.07C152.179 191.07 168.904 212.426 169.893 214.146C177.761 228.005 166.948 227.634 163.88 225.723C156.832 221.351 157.518 215.034 154.753 209.504L145.727 194.532Z" fill="#407BFF"/>
<g opacity="0.5">
<path d="M145.727 194.532L152.179 191.07C152.179 191.07 168.904 212.426 169.893 214.146C177.761 228.005 166.948 227.634 163.88 225.723C156.832 221.351 157.518 215.034 154.753 209.504L145.727 194.532Z" fill="black"/>
</g>
<path d="M149.807 205.188C157.094 210.611 164.736 215.541 172.68 219.946L173.074 221.598C173.269 222.399 173.248 223.237 173.012 224.027C172.777 224.817 172.336 225.53 171.735 226.094C171.133 226.657 170.393 227.051 169.59 227.235C168.786 227.419 167.948 227.386 167.162 227.139L165.206 226.532C165.206 226.532 139.601 219.53 139.039 212.156C135.633 207.941 141.973 198.016 149.807 205.188Z" fill="#407BFF"/>
<path opacity="0.5" d="M149.807 205.188C157.094 210.611 164.736 215.541 172.68 219.946L173.074 221.598C173.269 222.399 173.248 223.237 173.012 224.027C172.777 224.817 172.336 225.53 171.735 226.094C171.133 226.657 170.393 227.051 169.59 227.235C168.786 227.419 167.948 227.386 167.162 227.139L165.206 226.532C165.206 226.532 139.601 219.53 139.039 212.156C135.633 207.941 141.973 198.016 149.807 205.188Z" fill="black"/>
<path d="M139.478 168.331L135.903 169.185L112.67 174.726C112.612 174.554 112.567 174.377 112.535 174.198C112.282 173.155 112.098 172.096 111.985 171.029C111.906 170.287 111.85 169.545 111.838 168.781C111.704 160.913 115.536 154.168 121.595 152.741C127.653 151.314 134.094 155.54 137.533 162.643C137.837 163.273 138.118 163.947 138.376 164.622C138.774 165.643 139.101 166.691 139.354 167.758C139.376 167.994 139.444 168.174 139.478 168.331Z" fill="#263238"/>
<path opacity="0.5" d="M139.376 168.331L135.802 169.207L112.569 174.749C112.569 174.591 112.479 174.4 112.434 174.221C112.184 173.177 112.004 172.118 111.895 171.051L138.252 164.678C138.651 165.699 138.977 166.747 139.23 167.814C139.376 167.994 139.376 168.173 139.376 168.331Z" fill="black"/>
<path d="M148.076 168.511C148.156 168.844 148.168 169.191 148.113 169.529C148.057 169.868 147.935 170.192 147.753 170.483C147.571 170.774 147.333 171.025 147.053 171.223C146.772 171.421 146.455 171.561 146.12 171.635L109.478 180.391C108.809 180.55 108.104 180.437 107.518 180.077C106.932 179.716 106.513 179.138 106.353 178.469C106.267 178.132 106.25 177.781 106.305 177.437C106.359 177.093 106.482 176.763 106.668 176.469C107.035 175.897 107.613 175.494 108.275 175.345L144.951 166.577C145.284 166.499 145.628 166.487 145.965 166.541C146.302 166.596 146.624 166.717 146.915 166.896C147.205 167.076 147.457 167.311 147.656 167.588C147.855 167.865 147.998 168.178 148.076 168.511Z" fill="#263238"/>
</svg>
