<svg width="390" height="192" viewBox="0 0 390 192" fill="none" xmlns="http://www.w3.org/2000/svg">
<path d="M232.5 0H157.5C145.074 0 135 10.0736 135 22.5V97.5C135 109.926 145.074 120 157.5 120H232.5C244.926 120 255 109.926 255 97.5V22.5C255 10.0736 244.926 0 232.5 0Z" fill="#2196F3"/>
<path fill-rule="evenodd" clip-rule="evenodd" d="M208.478 28.0103C208.478 35.1957 202.444 41.0205 195 41.0205C187.557 41.0205 181.522 35.1957 181.522 28.0103C181.522 20.8249 187.557 15 195 15C202.444 15 208.478 20.8249 208.478 28.0103ZM194.758 48.2318C208.934 48.2318 210 59.8523 210 62.4825C210 71.1889 206.844 89.5181 195.712 104.57C195.513 104.839 195.187 105 194.843 105H182.979C182.145 105 181.637 104.111 182.085 103.43C188.932 93.0334 192.459 84.3315 194.18 76.7456C194.18 76.7407 194.185 76.7287 194.185 76.7239C193.015 76.6856 191.839 76.5244 190.691 76.2311C184.992 74.8005 180 70.2994 180 62.4825C180 52.8289 187.615 48.2318 194.758 48.2318Z" fill="white"/>
<path d="M14.3604 179.256C12.6537 179.256 11.075 178.979 9.62438 178.424C8.19504 177.848 6.94704 177.048 5.88038 176.024C4.83504 174.979 4.01371 173.763 3.41638 172.376C2.81904 170.989 2.52038 169.464 2.52038 167.8C2.52038 166.136 2.81904 164.611 3.41638 163.224C4.01371 161.837 4.84571 160.632 5.91238 159.608C6.97904 158.563 8.22704 157.763 9.65638 157.208C11.107 156.632 12.6857 156.344 14.3924 156.344C16.1204 156.344 17.7097 156.643 19.1604 157.24C20.6324 157.816 21.8804 158.68 22.9044 159.832L20.8244 161.848C19.971 160.952 19.011 160.291 17.9444 159.864C16.8777 159.416 15.7364 159.192 14.5204 159.192C13.2617 159.192 12.0884 159.405 11.0004 159.832C9.93371 160.259 9.00571 160.856 8.21638 161.624C7.42704 162.392 6.80838 163.309 6.36038 164.376C5.93371 165.421 5.72038 166.563 5.72038 167.8C5.72038 169.037 5.93371 170.189 6.36038 171.256C6.80838 172.301 7.42704 173.208 8.21638 173.976C9.00571 174.744 9.93371 175.341 11.0004 175.768C12.0884 176.195 13.2617 176.408 14.5204 176.408C15.7364 176.408 16.8777 176.195 17.9444 175.768C19.011 175.32 19.971 174.637 20.8244 173.72L22.9044 175.736C21.8804 176.888 20.6324 177.763 19.1604 178.36C17.7097 178.957 16.1097 179.256 14.3604 179.256ZM33.5666 179.192C31.86 179.192 30.3453 178.819 29.0226 178.072C27.7 177.325 26.6546 176.301 25.8866 175C25.1186 173.677 24.7346 172.184 24.7346 170.52C24.7346 168.835 25.1186 167.341 25.8866 166.04C26.6546 164.739 27.7 163.725 29.0226 163C30.3453 162.253 31.86 161.88 33.5666 161.88C35.252 161.88 36.756 162.253 38.0786 163C39.4226 163.725 40.468 164.739 41.2146 166.04C41.9826 167.32 42.3666 168.813 42.3666 170.52C42.3666 172.205 41.9826 173.699 41.2146 175C40.468 176.301 39.4226 177.325 38.0786 178.072C36.756 178.819 35.252 179.192 33.5666 179.192ZM33.5666 176.504C34.6546 176.504 35.6253 176.259 36.4786 175.768C37.3533 175.277 38.036 174.584 38.5266 173.688C39.0173 172.771 39.2626 171.715 39.2626 170.52C39.2626 169.304 39.0173 168.259 38.5266 167.384C38.036 166.488 37.3533 165.795 36.4786 165.304C35.6253 164.813 34.6546 164.568 33.5666 164.568C32.4786 164.568 31.508 164.813 30.6546 165.304C29.8013 165.795 29.1186 166.488 28.6066 167.384C28.0946 168.259 27.8386 169.304 27.8386 170.52C27.8386 171.715 28.0946 172.771 28.6066 173.688C29.1186 174.584 29.8013 175.277 30.6546 175.768C31.508 176.259 32.4786 176.504 33.5666 176.504ZM53.6231 179.192C51.9805 179.192 50.5085 178.829 49.2071 178.104C47.9271 177.379 46.9138 176.365 46.1671 175.064C45.4205 173.763 45.0471 172.248 45.0471 170.52C45.0471 168.792 45.4205 167.288 46.1671 166.008C46.9138 164.707 47.9271 163.693 49.2071 162.968C50.5085 162.243 51.9805 161.88 53.6231 161.88C55.0525 161.88 56.3431 162.2 57.4951 162.84C58.6471 163.48 59.5645 164.44 60.2471 165.72C60.9511 167 61.3031 168.6 61.3031 170.52C61.3031 172.44 60.9618 174.04 60.2791 175.32C59.6178 176.6 58.7111 177.571 57.5591 178.232C56.4071 178.872 55.0951 179.192 53.6231 179.192ZM53.8791 176.504C54.9458 176.504 55.9058 176.259 56.7591 175.768C57.6338 175.277 58.3165 174.584 58.8071 173.688C59.3191 172.771 59.5751 171.715 59.5751 170.52C59.5751 169.304 59.3191 168.259 58.8071 167.384C58.3165 166.488 57.6338 165.795 56.7591 165.304C55.9058 164.813 54.9458 164.568 53.8791 164.568C52.7911 164.568 51.8205 164.813 50.9671 165.304C50.1138 165.795 49.4311 166.488 48.9191 167.384C48.4071 168.259 48.1511 169.304 48.1511 170.52C48.1511 171.715 48.4071 172.771 48.9191 173.688C49.4311 174.584 50.1138 175.277 50.9671 175.768C51.8205 176.259 52.7911 176.504 53.8791 176.504ZM59.6711 179V174.424L59.8631 170.488L59.5431 166.552V155.256H62.6151V179H59.6711ZM68.4276 179V162.04H71.4996V179H68.4276ZM69.9636 158.776C69.3663 158.776 68.865 158.584 68.4596 158.2C68.0756 157.816 67.8836 157.347 67.8836 156.792C67.8836 156.216 68.0756 155.736 68.4596 155.352C68.865 154.968 69.3663 154.776 69.9636 154.776C70.561 154.776 71.0516 154.968 71.4356 155.352C71.841 155.715 72.0436 156.173 72.0436 156.728C72.0436 157.304 71.8516 157.795 71.4676 158.2C71.0836 158.584 70.5823 158.776 69.9636 158.776ZM83.1891 179.192C81.4825 179.192 80.1598 178.733 79.2211 177.816C78.2825 176.899 77.8131 175.587 77.8131 173.88V158.328H80.8851V173.752C80.8851 174.669 81.1091 175.373 81.5571 175.864C82.0265 176.355 82.6878 176.6 83.5411 176.6C84.5011 176.6 85.3011 176.333 85.9411 175.8L86.9011 178.008C86.4318 178.413 85.8665 178.712 85.2051 178.904C84.5651 179.096 83.8931 179.192 83.1891 179.192ZM74.9331 164.568V162.04H85.7491V164.568H74.9331ZM101.143 179V175.416L100.983 174.744V168.632C100.983 167.331 100.599 166.328 99.8311 165.624C99.0845 164.899 97.9538 164.536 96.4391 164.536C95.4365 164.536 94.4551 164.707 93.4951 165.048C92.5351 165.368 91.7245 165.805 91.0631 166.36L89.7831 164.056C90.6578 163.352 91.7031 162.819 92.9191 162.456C94.1565 162.072 95.4471 161.88 96.7911 161.88C99.1165 161.88 100.908 162.445 102.167 163.576C103.426 164.707 104.055 166.435 104.055 168.76V179H101.143ZM95.5751 179.192C94.3165 179.192 93.2071 178.979 92.2471 178.552C91.3085 178.125 90.5831 177.539 90.0711 176.792C89.5591 176.024 89.3031 175.16 89.3031 174.2C89.3031 173.283 89.5165 172.451 89.9431 171.704C90.3911 170.957 91.1058 170.36 92.0871 169.912C93.0898 169.464 94.4338 169.24 96.1191 169.24H101.495V171.448H96.2471C94.7111 171.448 93.6765 171.704 93.1431 172.216C92.6098 172.728 92.3431 173.347 92.3431 174.072C92.3431 174.904 92.6738 175.576 93.3351 176.088C93.9965 176.579 94.9138 176.824 96.0871 176.824C97.2391 176.824 98.2418 176.568 99.0951 176.056C99.9698 175.544 100.599 174.797 100.983 173.816L101.591 175.928C101.186 176.931 100.471 177.731 99.4471 178.328C98.4231 178.904 97.1325 179.192 95.5751 179.192ZM114.604 179.192C113.196 179.192 111.852 179 110.572 178.616C109.313 178.232 108.321 177.763 107.596 177.208L108.876 174.776C109.601 175.267 110.497 175.683 111.564 176.024C112.631 176.365 113.719 176.536 114.828 176.536C116.257 176.536 117.281 176.333 117.9 175.928C118.54 175.523 118.86 174.957 118.86 174.232C118.86 173.699 118.668 173.283 118.284 172.984C117.9 172.685 117.388 172.461 116.748 172.312C116.129 172.163 115.436 172.035 114.668 171.928C113.9 171.8 113.132 171.651 112.364 171.48C111.596 171.288 110.892 171.032 110.252 170.712C109.612 170.371 109.1 169.912 108.716 169.336C108.332 168.739 108.14 167.949 108.14 166.968C108.14 165.944 108.428 165.048 109.004 164.28C109.58 163.512 110.391 162.925 111.436 162.52C112.503 162.093 113.761 161.88 115.212 161.88C116.321 161.88 117.441 162.019 118.572 162.296C119.724 162.552 120.663 162.925 121.388 163.416L120.076 165.848C119.308 165.336 118.508 164.984 117.676 164.792C116.844 164.6 116.012 164.504 115.18 164.504C113.836 164.504 112.833 164.728 112.172 165.176C111.511 165.603 111.18 166.157 111.18 166.84C111.18 167.416 111.372 167.864 111.756 168.184C112.161 168.483 112.673 168.717 113.292 168.888C113.932 169.059 114.636 169.208 115.404 169.336C116.172 169.443 116.94 169.592 117.708 169.784C118.476 169.955 119.169 170.2 119.788 170.52C120.428 170.84 120.94 171.288 121.324 171.864C121.729 172.44 121.932 173.208 121.932 174.168C121.932 175.192 121.633 176.077 121.036 176.824C120.439 177.571 119.596 178.157 118.508 178.584C117.42 178.989 116.119 179.192 114.604 179.192ZM139.965 179L132.477 156.6H135.773L142.653 177.272H140.989L148.125 156.6H151.069L158.045 177.272H156.445L163.421 156.6H166.461L158.973 179H155.613L149.085 159.832H149.949L143.389 179H139.965ZM179.452 161.88C180.839 161.88 182.055 162.147 183.1 162.68C184.167 163.213 184.999 164.024 185.596 165.112C186.194 166.2 186.492 167.576 186.492 169.24V179H183.42V169.592C183.42 167.949 183.015 166.712 182.204 165.88C181.415 165.048 180.295 164.632 178.844 164.632C177.756 164.632 176.807 164.845 175.996 165.272C175.186 165.699 174.556 166.328 174.108 167.16C173.682 167.992 173.468 169.027 173.468 170.264V179H170.396V155.256H173.468V166.616L172.86 165.4C173.415 164.291 174.268 163.427 175.42 162.808C176.572 162.189 177.916 161.88 179.452 161.88ZM202.706 179V175.416L202.546 174.744V168.632C202.546 167.331 202.162 166.328 201.394 165.624C200.647 164.899 199.516 164.536 198.002 164.536C196.999 164.536 196.018 164.707 195.058 165.048C194.098 165.368 193.287 165.805 192.626 166.36L191.346 164.056C192.22 163.352 193.266 162.819 194.482 162.456C195.719 162.072 197.01 161.88 198.354 161.88C200.679 161.88 202.471 162.445 203.73 163.576C204.988 164.707 205.618 166.435 205.618 168.76V179H202.706ZM197.138 179.192C195.879 179.192 194.77 178.979 193.81 178.552C192.871 178.125 192.146 177.539 191.634 176.792C191.122 176.024 190.866 175.16 190.866 174.2C190.866 173.283 191.079 172.451 191.506 171.704C191.954 170.957 192.668 170.36 193.65 169.912C194.652 169.464 195.996 169.24 197.682 169.24H203.058V171.448H197.81C196.274 171.448 195.239 171.704 194.706 172.216C194.172 172.728 193.906 173.347 193.906 174.072C193.906 174.904 194.236 175.576 194.898 176.088C195.559 176.579 196.476 176.824 197.65 176.824C198.802 176.824 199.804 176.568 200.658 176.056C201.532 175.544 202.162 174.797 202.546 173.816L203.154 175.928C202.748 176.931 202.034 177.731 201.01 178.328C199.986 178.904 198.695 179.192 197.138 179.192ZM217.127 179.192C215.42 179.192 214.097 178.733 213.159 177.816C212.22 176.899 211.751 175.587 211.751 173.88V158.328H214.823V173.752C214.823 174.669 215.047 175.373 215.495 175.864C215.964 176.355 216.625 176.6 217.479 176.6C218.439 176.6 219.239 176.333 219.879 175.8L220.839 178.008C220.369 178.413 219.804 178.712 219.143 178.904C218.503 179.096 217.831 179.192 217.127 179.192ZM208.871 164.568V162.04H219.687V164.568H208.871ZM229.417 179.192C228.009 179.192 226.665 179 225.385 178.616C224.126 178.232 223.134 177.763 222.409 177.208L223.689 174.776C224.414 175.267 225.31 175.683 226.377 176.024C227.443 176.365 228.531 176.536 229.641 176.536C231.07 176.536 232.094 176.333 232.713 175.928C233.353 175.523 233.673 174.957 233.673 174.232C233.673 173.699 233.481 173.283 233.097 172.984C232.713 172.685 232.201 172.461 231.561 172.312C230.942 172.163 230.249 172.035 229.481 171.928C228.713 171.8 227.945 171.651 227.177 171.48C226.409 171.288 225.705 171.032 225.065 170.712C224.425 170.371 223.913 169.912 223.529 169.336C223.145 168.739 222.953 167.949 222.953 166.968C222.953 165.944 223.241 165.048 223.817 164.28C224.393 163.512 225.203 162.925 226.249 162.52C227.315 162.093 228.574 161.88 230.025 161.88C231.134 161.88 232.254 162.019 233.385 162.296C234.537 162.552 235.475 162.925 236.201 163.416L234.889 165.848C234.121 165.336 233.321 164.984 232.489 164.792C231.657 164.6 230.825 164.504 229.993 164.504C228.649 164.504 227.646 164.728 226.985 165.176C226.323 165.603 225.993 166.157 225.993 166.84C225.993 167.416 226.185 167.864 226.569 168.184C226.974 168.483 227.486 168.717 228.105 168.888C228.745 169.059 229.449 169.208 230.217 169.336C230.985 169.443 231.753 169.592 232.521 169.784C233.289 169.955 233.982 170.2 234.601 170.52C235.241 170.84 235.753 171.288 236.137 171.864C236.542 172.44 236.745 173.208 236.745 174.168C236.745 175.192 236.446 176.077 235.849 176.824C235.251 177.571 234.409 178.157 233.321 178.584C232.233 178.989 230.931 179.192 229.417 179.192ZM237.64 179L247.784 156.6H250.952L261.128 179H257.768L248.712 158.392H249.992L240.936 179H237.64ZM241.96 173.4L242.824 170.84H255.432L256.36 173.4H241.96ZM273.013 179.192C271.605 179.192 270.315 178.872 269.141 178.232C267.989 177.571 267.061 176.6 266.357 175.32C265.675 174.04 265.333 172.44 265.333 170.52C265.333 168.6 265.664 167 266.325 165.72C267.008 164.44 267.925 163.48 269.077 162.84C270.251 162.2 271.563 161.88 273.013 161.88C274.677 161.88 276.149 162.243 277.429 162.968C278.709 163.693 279.723 164.707 280.469 166.008C281.216 167.288 281.589 168.792 281.589 170.52C281.589 172.248 281.216 173.763 280.469 175.064C279.723 176.365 278.709 177.379 277.429 178.104C276.149 178.829 274.677 179.192 273.013 179.192ZM264.021 185.208V162.04H266.965V166.616L266.773 170.552L267.093 174.488V185.208H264.021ZM272.757 176.504C273.845 176.504 274.816 176.259 275.669 175.768C276.544 175.277 277.227 174.584 277.717 173.688C278.229 172.771 278.485 171.715 278.485 170.52C278.485 169.304 278.229 168.259 277.717 167.384C277.227 166.488 276.544 165.795 275.669 165.304C274.816 164.813 273.845 164.568 272.757 164.568C271.691 164.568 270.72 164.813 269.845 165.304C268.992 165.795 268.309 166.488 267.797 167.384C267.307 168.259 267.061 169.304 267.061 170.52C267.061 171.715 267.307 172.771 267.797 173.688C268.309 174.584 268.992 175.277 269.845 175.768C270.72 176.259 271.691 176.504 272.757 176.504ZM294.826 179.192C293.418 179.192 292.127 178.872 290.954 178.232C289.802 177.571 288.874 176.6 288.17 175.32C287.487 174.04 287.146 172.44 287.146 170.52C287.146 168.6 287.477 167 288.138 165.72C288.821 164.44 289.738 163.48 290.89 162.84C292.063 162.2 293.375 161.88 294.826 161.88C296.49 161.88 297.962 162.243 299.242 162.968C300.522 163.693 301.535 164.707 302.282 166.008C303.029 167.288 303.402 168.792 303.402 170.52C303.402 172.248 303.029 173.763 302.282 175.064C301.535 176.365 300.522 177.379 299.242 178.104C297.962 178.829 296.49 179.192 294.826 179.192ZM285.834 185.208V162.04H288.778V166.616L288.586 170.552L288.906 174.488V185.208H285.834ZM294.57 176.504C295.658 176.504 296.629 176.259 297.482 175.768C298.357 175.277 299.039 174.584 299.53 173.688C300.042 172.771 300.298 171.715 300.298 170.52C300.298 169.304 300.042 168.259 299.53 167.384C299.039 166.488 298.357 165.795 297.482 165.304C296.629 164.813 295.658 164.568 294.57 164.568C293.503 164.568 292.533 164.813 291.658 165.304C290.805 165.795 290.122 166.488 289.61 167.384C289.119 168.259 288.874 169.304 288.874 170.52C288.874 171.715 289.119 172.771 289.61 173.688C290.122 174.584 290.805 175.277 291.658 175.768C292.533 176.259 293.503 176.504 294.57 176.504ZM321.84 179L314.352 156.6H317.648L324.528 177.272H322.864L330 156.6H332.944L339.92 177.272H338.32L345.296 156.6H348.336L340.848 179H337.488L330.96 159.832H331.824L325.264 179H321.84ZM358.073 179.192C356.26 179.192 354.66 178.819 353.273 178.072C351.908 177.325 350.841 176.301 350.073 175C349.327 173.699 348.953 172.205 348.953 170.52C348.953 168.835 349.316 167.341 350.041 166.04C350.788 164.739 351.801 163.725 353.081 163C354.383 162.253 355.844 161.88 357.465 161.88C359.108 161.88 360.559 162.243 361.817 162.968C363.076 163.693 364.057 164.717 364.761 166.04C365.487 167.341 365.849 168.867 365.849 170.616C365.849 170.744 365.839 170.893 365.817 171.064C365.817 171.235 365.807 171.395 365.785 171.544H351.353V169.336H364.185L362.937 170.104C362.959 169.016 362.735 168.045 362.265 167.192C361.796 166.339 361.145 165.677 360.313 165.208C359.503 164.717 358.553 164.472 357.465 164.472C356.399 164.472 355.449 164.717 354.617 165.208C353.785 165.677 353.135 166.349 352.665 167.224C352.196 168.077 351.961 169.059 351.961 170.168V170.68C351.961 171.811 352.217 172.824 352.729 173.72C353.263 174.595 353.999 175.277 354.937 175.768C355.876 176.259 356.953 176.504 358.169 176.504C359.172 176.504 360.079 176.333 360.889 175.992C361.721 175.651 362.447 175.139 363.065 174.456L364.761 176.44C363.993 177.336 363.033 178.019 361.881 178.488C360.751 178.957 359.481 179.192 358.073 179.192ZM379.107 179.192C377.656 179.192 376.344 178.872 375.171 178.232C374.019 177.571 373.102 176.6 372.419 175.32C371.758 174.04 371.427 172.44 371.427 170.52C371.427 168.6 371.768 167 372.451 165.72C373.155 164.44 374.083 163.48 375.235 162.84C376.408 162.2 377.699 161.88 379.107 161.88C380.771 161.88 382.243 162.243 383.523 162.968C384.803 163.693 385.816 164.707 386.563 166.008C387.31 167.288 387.683 168.792 387.683 170.52C387.683 172.248 387.31 173.763 386.563 175.064C385.816 176.365 384.803 177.379 383.523 178.104C382.243 178.829 380.771 179.192 379.107 179.192ZM370.115 179V155.256H373.187V166.552L372.867 170.488L373.059 174.424V179H370.115ZM378.851 176.504C379.939 176.504 380.91 176.259 381.763 175.768C382.638 175.277 383.32 174.584 383.811 173.688C384.323 172.771 384.579 171.715 384.579 170.52C384.579 169.304 384.323 168.259 383.811 167.384C383.32 166.488 382.638 165.795 381.763 165.304C380.91 164.813 379.939 164.568 378.851 164.568C377.784 164.568 376.814 164.813 375.939 165.304C375.086 165.795 374.403 166.488 373.891 167.384C373.4 168.259 373.155 169.304 373.155 170.52C373.155 171.715 373.4 172.771 373.891 173.688C374.403 174.584 375.086 175.277 375.939 175.768C376.814 176.259 377.784 176.504 378.851 176.504Z" fill="#101828"/>
</svg>
