<svg width="40" height="40" viewBox="0 0 40 40" fill="none" xmlns="http://www.w3.org/2000/svg">
<rect width="40" height="40" rx="4" fill="#2C74D6"/>
<mask id="mask0_19_99043" style="mask-type:alpha" maskUnits="userSpaceOnUse" x="8" y="8" width="24" height="24">
<rect x="8" y="8" width="24" height="24" fill="#D9D9D9"/>
</mask>
<g mask="url(#mask0_19_99043)">
<path d="M20 26C19.7571 26 19.5536 25.9179 19.3893 25.7536C19.225 25.5893 19.1429 25.3857 19.1429 25.1429V20.8571H14.8571C14.6143 20.8571 14.4107 20.775 14.2464 20.6107C14.0821 20.4464 14 20.2429 14 20C14 19.7571 14.0821 19.5536 14.2464 19.3893C14.4107 19.225 14.6143 19.1429 14.8571 19.1429H19.1429V14.8571C19.1429 14.6143 19.225 14.4107 19.3893 14.2464C19.5536 14.0821 19.7571 14 20 14C20.2429 14 20.4464 14.0821 20.6107 14.2464C20.775 14.4107 20.8571 14.6143 20.8571 14.8571V19.1429H25.1429C25.3857 19.1429 25.5893 19.225 25.7536 19.3893C25.9179 19.5536 26 19.7571 26 20C26 20.2429 25.9179 20.4464 25.7536 20.6107C25.5893 20.775 25.3857 20.8571 25.1429 20.8571H20.8571V25.1429C20.8571 25.3857 20.775 25.5893 20.6107 25.7536C20.4464 25.9179 20.2429 26 20 26Z" fill="white"/>
</g>
</svg>
