<svg width="28" height="28" viewBox="0 0 28 28" fill="none" xmlns="http://www.w3.org/2000/svg">
<mask id="mask0_1237_11706" style="mask-type:alpha" maskUnits="userSpaceOnUse" x="0" y="0" width="28" height="28">
<rect width="28" height="28" fill="#D9D9D9"/>
</mask>
<g mask="url(#mask0_1237_11706)">
<path d="M7.17066 21.8691C6.04996 20.7484 5.49578 19.4023 5.50812 17.8307C5.52047 16.2592 6.09586 14.9041 7.2343 13.7657L15.0302 5.96985C15.8469 5.15314 16.8323 4.74025 17.9864 4.73119C19.1405 4.72213 20.1196 5.11958 20.9236 5.92356C21.7275 6.72755 22.125 7.7066 22.1159 8.86073C22.1069 10.0149 21.694 11.0003 20.8773 11.817L13.8239 18.8704C13.3042 19.3901 12.6882 19.6528 11.9761 19.6583C11.264 19.6639 10.6521 19.4109 10.1405 18.8993C9.62888 18.3877 9.37587 17.7758 9.38146 17.0637C9.38705 16.3516 9.64971 15.7356 10.1694 15.2159L16.666 8.71937C16.8268 8.5585 17.0116 8.47725 17.2204 8.47561C17.4291 8.47397 17.6126 8.55233 17.771 8.71069C17.9294 8.86905 18.0077 9.05259 18.0061 9.26132C18.0044 9.47004 17.9232 9.65484 17.7623 9.81571L11.2658 16.3122C11.0554 16.5226 10.9491 16.769 10.9469 17.0514C10.9447 17.3338 11.0471 17.5785 11.2542 17.7856C11.4613 17.9927 11.706 18.0951 11.9884 18.0929C12.2708 18.0907 12.5172 17.9844 12.7276 17.774L19.7809 10.7206C20.3007 10.2009 20.5633 9.585 20.5689 8.87288C20.5745 8.16075 20.3215 7.54888 19.8099 7.03726C19.2982 6.52563 18.6864 6.27262 17.9743 6.27821C17.2621 6.2838 16.6462 6.54646 16.1265 7.06619L8.33064 14.862C7.51393 15.6787 7.10104 16.6642 7.09198 17.8183C7.08291 18.9724 7.48037 19.9515 8.28435 20.7555C9.08833 21.5594 10.0674 21.9569 11.2215 21.9478C12.3756 21.9388 13.3611 21.5259 14.1778 20.7092L21.4168 13.4702C21.5776 13.3093 21.7624 13.228 21.9712 13.2264C22.1799 13.2248 22.3634 13.3031 22.5218 13.4615C22.6801 13.6198 22.7585 13.8034 22.7569 14.0121C22.7552 14.2208 22.674 14.4056 22.5131 14.5665L15.2741 21.8055C14.1357 22.9439 12.7807 23.5193 11.2091 23.5317C9.6375 23.544 8.29136 22.9898 7.17066 21.8691Z" fill="#667085"/>
</g>
</svg>
