<svg width="28" height="28" viewBox="0 0 28 28" fill="none" xmlns="http://www.w3.org/2000/svg">
<rect width="8315" height="3192" transform="translate(-4752 -1936)" fill="white"/>
<mask id="mask0_55_2" style="mask-type:alpha" maskUnits="userSpaceOnUse" x="0" y="0" width="28" height="28">
<rect width="28" height="28" fill="#D9D9D9"/>
</mask>
<g mask="url(#mask0_55_2)">
<mask id="path-3-inside-1_55_2" fill="white">
<path d="M5.84375 21C5.6 21 5.39844 20.9292 5.23906 20.7875C5.07969 20.6458 5 20.4667 5 20.25C5 20.0333 5.07969 19.8542 5.23906 19.7125C5.39844 19.5708 5.6 19.5 5.84375 19.5H7.3625V11.85C7.3625 10.4833 7.82656 9.24583 8.75469 8.1375C9.68281 7.02917 10.9063 6.33333 12.425 6.05V5.325C12.425 4.94167 12.5797 4.625 12.8891 4.375C13.1984 4.125 13.5688 4 14 4C14.4312 4 14.8016 4.125 15.1109 4.375C15.4203 4.625 15.575 4.94167 15.575 5.325V6.05C17.0937 6.33333 18.3219 7.02917 19.2594 8.1375C20.1969 9.24583 20.6656 10.4833 20.6656 11.85V19.5H22.1562C22.4 19.5 22.6016 19.5708 22.7609 19.7125C22.9203 19.8542 23 20.0333 23 20.25C23 20.4667 22.9203 20.6458 22.7609 20.7875C22.6016 20.9292 22.4 21 22.1562 21H5.84375ZM14 24C13.4 24 12.875 23.8042 12.425 23.4125C11.975 23.0208 11.75 22.55 11.75 22H16.25C16.25 22.55 16.0297 23.0208 15.5891 23.4125C15.1484 23.8042 14.6188 24 14 24ZM9.05 19.5H18.9781V11.85C18.9781 10.6 18.5047 9.54583 17.5578 8.6875C16.6109 7.82917 15.4438 7.4 14.0563 7.4C12.65 7.4 11.4641 7.82917 10.4984 8.6875C9.53281 9.54583 9.05 10.6 9.05 11.85V19.5Z"/>
</mask>
<path d="M5.84375 21C5.6 21 5.39844 20.9292 5.23906 20.7875C5.07969 20.6458 5 20.4667 5 20.25C5 20.0333 5.07969 19.8542 5.23906 19.7125C5.39844 19.5708 5.6 19.5 5.84375 19.5H7.3625V11.85C7.3625 10.4833 7.82656 9.24583 8.75469 8.1375C9.68281 7.02917 10.9063 6.33333 12.425 6.05V5.325C12.425 4.94167 12.5797 4.625 12.8891 4.375C13.1984 4.125 13.5688 4 14 4C14.4312 4 14.8016 4.125 15.1109 4.375C15.4203 4.625 15.575 4.94167 15.575 5.325V6.05C17.0937 6.33333 18.3219 7.02917 19.2594 8.1375C20.1969 9.24583 20.6656 10.4833 20.6656 11.85V19.5H22.1562C22.4 19.5 22.6016 19.5708 22.7609 19.7125C22.9203 19.8542 23 20.0333 23 20.25C23 20.4667 22.9203 20.6458 22.7609 20.7875C22.6016 20.9292 22.4 21 22.1562 21H5.84375ZM14 24C13.4 24 12.875 23.8042 12.425 23.4125C11.975 23.0208 11.75 22.55 11.75 22H16.25C16.25 22.55 16.0297 23.0208 15.5891 23.4125C15.1484 23.8042 14.6188 24 14 24ZM9.05 19.5H18.9781V11.85C18.9781 10.6 18.5047 9.54583 17.5578 8.6875C16.6109 7.82917 15.4438 7.4 14.0563 7.4C12.65 7.4 11.4641 7.82917 10.4984 8.6875C9.53281 9.54583 9.05 10.6 9.05 11.85V19.5Z" fill="#667085" stroke="#667085" stroke-width="4" mask="url(#path-3-inside-1_55_2)"/>
</g>
<rect x="-872.5" y="-7.5" width="1662" height="43" rx="4.5" stroke="#9747FF" stroke-dasharray="10 5"/>
</svg>
