<svg width="49" height="49" viewBox="0 0 49 49" fill="none" xmlns="http://www.w3.org/2000/svg">
<path d="M39.5 0.5H9.5C4.52944 0.5 0.5 4.52944 0.5 9.5V39.5C0.5 44.4706 4.52944 48.5 9.5 48.5H39.5C44.4706 48.5 48.5 44.4706 48.5 39.5V9.5C48.5 4.52944 44.4706 0.5 39.5 0.5Z" fill="#2196F3"/>
<path fill-rule="evenodd" clip-rule="evenodd" d="M29.8913 11.7041C29.8913 14.5783 27.4776 16.9082 24.5002 16.9082C21.5227 16.9082 19.1088 14.5783 19.1088 11.7041C19.1088 8.82996 21.5227 6.5 24.5002 6.5C27.4776 6.5 29.8913 8.82996 29.8913 11.7041ZM24.4033 19.7927C30.0734 19.7927 30.5 24.4409 30.5 25.493C30.5 28.9756 29.2376 36.3073 24.785 42.3278C24.7053 42.4356 24.5747 42.5 24.4372 42.5H19.6915C19.3579 42.5 19.1547 42.1442 19.334 41.872C22.0729 37.7134 23.4837 34.2326 24.1721 31.1982C24.1721 31.1963 24.1741 31.1915 24.1741 31.1895C23.7059 31.1742 23.2356 31.1098 22.7762 30.9925C20.4966 30.4202 18.5 28.6198 18.5 25.493C18.5 21.6316 21.5458 19.7927 24.4033 19.7927Z" fill="white"/>
</svg>
