<svg width="16" height="16" viewBox="0 0 16 16" fill="none" xmlns="http://www.w3.org/2000/svg">
<mask id="mask0_1009_46601" style="mask-type:alpha" maskUnits="userSpaceOnUse" x="0" y="0" width="16" height="16">
<rect width="16" height="16" fill="#D9D9D9"/>
</mask>
<g mask="url(#mask0_1009_46601)">
</g>
<g clip-path="url(#clip0_1009_46601)">
<path d="M12.3687 3.6375C12.0983 3.36706 11.6614 3.36706 11.391 3.6375L8.00014 7.02143L4.60927 3.63056C4.33884 3.36013 3.90198 3.36013 3.63154 3.63056C3.3611 3.901 3.3611 4.33786 3.63154 4.6083L7.02241 7.99916L3.63154 11.39C3.3611 11.6605 3.3611 12.0973 3.63154 12.3678C3.90198 12.6382 4.33884 12.6382 4.60927 12.3678L8.00014 8.9769L11.391 12.3678C11.6614 12.6382 12.0983 12.6382 12.3687 12.3678C12.6392 12.0973 12.6392 11.6605 12.3687 11.39L8.97787 7.99916L12.3687 4.6083C12.6322 4.34479 12.6322 3.901 12.3687 3.6375Z" fill="white"/>
</g>
<defs>
<clipPath id="clip0_1009_46601">
<rect width="13.7143" height="13.7143" fill="white" transform="translate(1.14258 1.14258)"/>
</clipPath>
</defs>
</svg>
