<svg width="52" height="52" viewBox="0 0 52 52" fill="none" xmlns="http://www.w3.org/2000/svg">
<rect width="52" height="52" rx="26" fill="#5690DE"/>
<mask id="mask0_30_94470" style="mask-type:alpha" maskUnits="userSpaceOnUse" x="12" y="12" width="28" height="28">
<rect x="12" y="12" width="28" height="28" fill="#D9D9D9"/>
</mask>
<g mask="url(#mask0_30_94470)">
<path d="M19.0003 37.6666C18.3587 37.6666 17.8094 37.4381 17.3524 36.9812C16.8955 36.5242 16.667 35.9749 16.667 35.3333V16.6666C16.667 16.0249 16.8955 15.4756 17.3524 15.0187C17.8094 14.5617 18.3587 14.3333 19.0003 14.3333H28.3337L35.3337 21.3333V35.3333C35.3337 35.9749 35.1052 36.5242 34.6482 36.9812C34.1913 37.4381 33.642 37.6666 33.0003 37.6666H19.0003ZM27.167 22.4999V16.6666H19.0003V35.3333H33.0003V22.4999H27.167Z" fill="white"/>
</g>
</svg>
