<svg width="18" height="18" viewBox="0 0 18 18" fill="none" xmlns="http://www.w3.org/2000/svg">
<path d="M8.99928 13.0549C9.19544 13.0549 9.35986 12.9886 9.49255 12.8559C9.62523 12.7232 9.69157 12.5588 9.69157 12.3626C9.69157 12.1665 9.62523 12.0021 9.49255 11.8694C9.35986 11.7367 9.19544 11.6704 8.99928 11.6704C8.80312 11.6704 8.6387 11.7367 8.50602 11.8694C8.37333 12.0021 8.30699 12.1665 8.30699 12.3626C8.30699 12.5588 8.37333 12.7232 8.50602 12.8559C8.6387 12.9886 8.80312 13.0549 8.99928 13.0549ZM8.35645 9.92309H9.64212V4.78023H8.35645V9.92309ZM9.00072 17.1429C7.87449 17.1429 6.81589 16.9291 5.82492 16.5017C4.83393 16.0743 3.97192 15.4942 3.23887 14.7615C2.50582 14.0288 1.92548 13.1671 1.49787 12.1766C1.07025 11.1861 0.856445 10.1277 0.856445 9.00145C0.856445 7.87522 1.07016 6.81662 1.49759 5.82565C1.92502 4.83466 2.50509 3.97265 3.2378 3.23961C3.97053 2.50655 4.83217 1.92621 5.82271 1.4986C6.81324 1.07098 7.87162 0.857178 8.99785 0.857178C10.1241 0.857178 11.1827 1.07089 12.1736 1.49832C13.1646 1.92575 14.0266 2.50582 14.7597 3.23854C15.4927 3.97126 16.0731 4.8329 16.5007 5.82344C16.9283 6.81397 17.1421 7.87235 17.1421 8.99858C17.1421 10.1248 16.9284 11.1834 16.501 12.1744C16.0735 13.1654 15.4935 14.0274 14.7608 14.7604C14.028 15.4935 13.1664 16.0738 12.1759 16.5014C11.1853 16.929 10.1269 17.1429 9.00072 17.1429ZM8.99928 15.8572C10.9136 15.8572 12.535 15.1929 13.8636 13.8643C15.1921 12.5357 15.8564 10.9143 15.8564 9.00001C15.8564 7.08573 15.1921 5.4643 13.8636 4.13573C12.535 2.80716 10.9136 2.14287 8.99928 2.14287C7.085 2.14287 5.46357 2.80716 4.135 4.13573C2.80642 5.4643 2.14214 7.08573 2.14214 9.00001C2.14214 10.9143 2.80642 12.5357 4.135 13.8643C5.46357 15.1929 7.085 15.8572 8.99928 15.8572Z" fill="#DC362E"/>
</svg>
