<svg width="52" height="52" viewBox="0 0 52 52" fill="none" xmlns="http://www.w3.org/2000/svg">
<rect width="52" height="52" rx="26" fill="#235DAB"/>
<mask id="mask0_30_94537" style="mask-type:alpha" maskUnits="userSpaceOnUse" x="12" y="12" width="28" height="28">
<rect x="12" y="12" width="28" height="28" fill="#D9D9D9"/>
</mask>
<g mask="url(#mask0_30_94537)">
<path d="M17.8333 36.5C17.1917 36.5 16.6424 36.2715 16.1854 35.8146C15.7285 35.3576 15.5 34.8083 15.5 34.1667V17.8333C15.5 17.1917 15.7285 16.6424 16.1854 16.1854C16.6424 15.7285 17.1917 15.5 17.8333 15.5H34.1667C34.8083 15.5 35.3576 15.7285 35.8146 16.1854C36.2715 16.6424 36.5 17.1917 36.5 17.8333V34.1667C36.5 34.8083 36.2715 35.3576 35.8146 35.8146C35.3576 36.2715 34.8083 36.5 34.1667 36.5H17.8333ZM17.8333 34.1667H34.1667V17.8333H17.8333V34.1667ZM19 31.8333H33L28.625 26L25.125 30.6667L22.5 27.1667L19 31.8333Z" fill="white"/>
</g>
</svg>
