<svg width="20" height="21" viewBox="0 0 20 21" fill="none" xmlns="http://www.w3.org/2000/svg">
<g clip-path="url(#clip0_621_19779)">
<path d="M19.8052 10.7312C19.8052 10.0514 19.7501 9.36797 19.6325 8.69922H10.2002V12.55H15.6016C15.3775 13.792 14.6573 14.8907 13.6027 15.5888V18.0874H16.8252C18.7176 16.3457 19.8052 13.7736 19.8052 10.7312Z" fill="#4285F4"/>
<path d="M10.1999 20.5017C12.897 20.5017 15.1714 19.6162 16.8286 18.0876L13.6061 15.589C12.7096 16.199 11.5521 16.5444 10.2036 16.5444C7.59474 16.5444 5.38272 14.7843 4.58904 12.418H1.26367V14.9938C2.96127 18.3706 6.41892 20.5017 10.1999 20.5017Z" fill="#34A853"/>
<path d="M4.58564 12.4163C4.16676 11.1743 4.16676 9.82947 4.58564 8.5875V6.01172H1.26395C-0.154389 8.83737 -0.154389 12.1664 1.26395 14.9921L4.58564 12.4163Z" fill="#FBBC04"/>
<path d="M10.1999 4.45805C11.6256 4.436 13.0035 4.97247 14.036 5.95722L16.8911 3.10218C15.0833 1.40459 12.6838 0.471278 10.1999 0.500674C6.41892 0.500674 2.96126 2.63185 1.26367 6.01234L4.58537 8.58813C5.37537 6.21811 7.59106 4.45805 10.1999 4.45805Z" fill="#EA4335"/>
</g>
<defs>
<clipPath id="clip0_621_19779">
<rect width="20" height="20" fill="white" transform="translate(0 0.5)"/>
</clipPath>
</defs>
</svg>
