<svg width="5" height="18" viewBox="0 0 5 18" fill="none" xmlns="http://www.w3.org/2000/svg">
<path d="M2.5625 17.75C1.96094 17.75 1.44596 17.5358 1.01758 17.1074C0.589193 16.679 0.375 16.1641 0.375 15.5625C0.375 14.9609 0.589193 14.446 1.01758 14.0176C1.44596 13.5892 1.96094 13.375 2.5625 13.375C3.16406 13.375 3.67904 13.5892 4.10742 14.0176C4.53581 14.446 4.75 14.9609 4.75 15.5625C4.75 16.1641 4.53581 16.679 4.10742 17.1074C3.67904 17.5358 3.16406 17.75 2.5625 17.75ZM2.5625 11.1875C1.96094 11.1875 1.44596 10.9733 1.01758 10.5449C0.589193 10.1165 0.375 9.60156 0.375 9C0.375 8.39844 0.589193 7.88346 1.01758 7.45508C1.44596 7.02669 1.96094 6.8125 2.5625 6.8125C3.16406 6.8125 3.67904 7.02669 4.10742 7.45508C4.53581 7.88346 4.75 8.39844 4.75 9C4.75 9.60156 4.53581 10.1165 4.10742 10.5449C3.67904 10.9733 3.16406 11.1875 2.5625 11.1875ZM2.5625 4.625C1.96094 4.625 1.44596 4.41081 1.01758 3.98242C0.589193 3.55404 0.375 3.03906 0.375 2.4375C0.375 1.83594 0.589193 1.32096 1.01758 0.892578C1.44596 0.464193 1.96094 0.25 2.5625 0.25C3.16406 0.25 3.67904 0.464193 4.10742 0.892578C4.53581 1.32096 4.75 1.83594 4.75 2.4375C4.75 3.03906 4.53581 3.55404 4.10742 3.98242C3.67904 4.41081 3.16406 4.625 2.5625 4.625Z" fill="#545454"/>
</svg>
