<svg width="28" height="28" viewBox="0 0 28 28" fill="none" xmlns="http://www.w3.org/2000/svg">
<path fill-rule="evenodd" clip-rule="evenodd" d="M14.0001 4C11.2376 4 9.00007 6.2375 9.00007 9C9.00007 11.7625 11.2376 14 14.0001 14C16.7626 14 19.0001 11.7625 19.0001 9C19.0001 6.2375 16.7626 4 14.0001 4ZM16.6257 9.00053C16.6257 7.55053 15.4507 6.37553 14.0007 6.37553C12.5507 6.37553 11.3757 7.55053 11.3757 9.00053C11.3757 10.4505 12.5507 11.6255 14.0007 11.6255C15.4507 11.6255 16.6257 10.4505 16.6257 9.00053ZM21.6259 20.2505C21.6259 19.4505 17.7134 17.6255 14.0009 17.6255C10.2884 17.6255 6.37591 19.4505 6.37591 20.2505V21.6255H21.6259V20.2505ZM4.00024 20.25C4.00024 16.925 10.6627 15.25 14.0002 15.25C17.3377 15.25 24.0002 16.925 24.0002 20.25V24H4.00024V20.25Z" fill="#667085"/>
</svg>
