<svg width="24" height="24" viewBox="0 0 24 24" fill="none" xmlns="http://www.w3.org/2000/svg">
<mask id="mask0_328_35959" style="mask-type:alpha" maskUnits="userSpaceOnUse" x="0" y="0" width="24" height="24">
<rect width="24" height="24" fill="#D9D9D9"/>
</mask>
<g mask="url(#mask0_328_35959)">
<path d="M14.5 11.9859C14.5 11.889 14.4845 11.8002 14.4536 11.7195C14.4227 11.6388 14.3686 11.558 14.2913 11.4773L9.69899 6.68234C9.57529 6.55318 9.40908 6.49264 9.20034 6.50071C8.9916 6.50878 8.82538 6.5774 8.70168 6.70656C8.54706 6.868 8.48134 7.04156 8.50454 7.22722C8.52773 7.41289 8.60118 7.57837 8.72487 7.72367L12.8069 11.9859L8.72487 16.2481C8.60118 16.3772 8.5316 16.5508 8.51613 16.7687C8.50067 16.9867 8.57025 17.1603 8.72487 17.2894C8.84857 17.4509 9.01092 17.5195 9.21193 17.4953C9.41294 17.471 9.58303 17.3944 9.72218 17.2652L14.2913 12.4944C14.3686 12.4137 14.4227 12.333 14.4536 12.2523C14.4845 12.1715 14.5 12.0827 14.5 11.9859Z" fill="#101828"/>
</g>
</svg>
