<svg width="7" height="12" viewBox="0 0 7 12" fill="none" xmlns="http://www.w3.org/2000/svg">
<path d="M6.5 5.98588C6.5 5.88901 6.48454 5.80021 6.45361 5.71949C6.42269 5.63877 6.36857 5.55804 6.29126 5.47732L1.69899 0.68234C1.57529 0.553183 1.40908 0.49264 1.20034 0.500712C0.991597 0.508785 0.825378 0.5774 0.70168 0.706557C0.547058 0.868005 0.481345 1.04156 0.504538 1.22722C0.527731 1.41289 0.601177 1.57837 0.724874 1.72367L4.80689 5.98588L0.724874 10.2481C0.601177 10.3772 0.531596 10.5508 0.516134 10.7687C0.500672 10.9867 0.570252 11.1603 0.724874 11.2894C0.848572 11.4509 1.01092 11.5195 1.21193 11.4953C1.41294 11.471 1.58303 11.3944 1.72218 11.2652L6.29126 6.49444C6.36857 6.41371 6.42269 6.33299 6.45361 6.25227C6.48454 6.17154 6.5 6.08275 6.5 5.98588Z" fill="#101828"/>
</svg>
