<svg width="18" height="18" viewBox="0 0 18 18" fill="none" xmlns="http://www.w3.org/2000/svg">
<path d="M12.4996 11.0001H11.7096L11.4296 10.7301C12.6296 9.33014 13.2496 7.42014 12.9096 5.39014C12.4396 2.61014 10.1196 0.390137 7.31965 0.0501373C3.08965 -0.469863 -0.470351 3.09014 0.049649 7.32014C0.389649 10.1201 2.60965 12.4401 5.38965 12.9101C7.41965 13.2501 9.32965 12.6301 10.7296 11.4301L10.9996 11.7101V12.5001L15.2496 16.7501C15.6596 17.1601 16.3296 17.1601 16.7396 16.7501C17.1496 16.3401 17.1496 15.6701 16.7396 15.2601L12.4996 11.0001ZM6.49965 11.0001C4.00965 11.0001 1.99965 8.99014 1.99965 6.50014C1.99965 4.01014 4.00965 2.00014 6.49965 2.00014C8.98965 2.00014 10.9996 4.01014 10.9996 6.50014C10.9996 8.99014 8.98965 11.0001 6.49965 11.0001Z" fill="#111111"/>
</svg>
