<svg width="28" height="28" viewBox="0 0 28 28" fill="none" xmlns="http://www.w3.org/2000/svg">
<mask id="mask0_1237_11702" style="mask-type:alpha" maskUnits="userSpaceOnUse" x="0" y="0" width="28" height="28">
<rect width="28" height="28" fill="#D9D9D9"/>
</mask>
<g mask="url(#mask0_1237_11702)">
<path d="M9.75325 19.9935H15.5866C15.9171 19.9935 16.1942 19.8817 16.4178 19.6581C16.6414 19.4345 16.7533 19.1574 16.7533 18.8268C16.7533 18.4963 16.6414 18.2192 16.4178 17.9956C16.1942 17.772 15.9171 17.6602 15.5866 17.6602H9.75325C9.4227 17.6602 9.14562 17.772 8.922 17.9956C8.69839 18.2192 8.58659 18.4963 8.58659 18.8268C8.58659 19.1574 8.69839 19.4345 8.922 19.6581C9.14562 19.8817 9.4227 19.9935 9.75325 19.9935ZM9.75325 15.3268H19.0866C19.4171 15.3268 19.6942 15.215 19.9178 14.9914C20.1414 14.7678 20.2533 14.4907 20.2533 14.1602C20.2533 13.8296 20.1414 13.5525 19.9178 13.3289C19.6942 13.1053 19.4171 12.9935 19.0866 12.9935H9.75325C9.4227 12.9935 9.14562 13.1053 8.922 13.3289C8.69839 13.5525 8.58659 13.8296 8.58659 14.1602C8.58659 14.4907 8.69839 14.7678 8.922 14.9914C9.14562 15.215 9.4227 15.3268 9.75325 15.3268ZM9.75325 10.6602H19.0866C19.4171 10.6602 19.6942 10.5484 19.9178 10.3247C20.1414 10.1011 20.2533 9.82404 20.2533 9.49349C20.2533 9.16293 20.1414 8.88585 19.9178 8.66224C19.6942 8.43863 19.4171 8.32682 19.0866 8.32682H9.75325C9.4227 8.32682 9.14562 8.43863 8.922 8.66224C8.69839 8.88585 8.58659 9.16293 8.58659 9.49349C8.58659 9.82404 8.69839 10.1011 8.922 10.3247C9.14562 10.5484 9.4227 10.6602 9.75325 10.6602ZM6.25326 24.6602C5.61159 24.6602 5.06228 24.4317 4.60534 23.9747C4.14839 23.5178 3.91992 22.9685 3.91992 22.3268V5.99349C3.91992 5.35182 4.14839 4.80252 4.60534 4.34557C5.06228 3.88863 5.61159 3.66016 6.25326 3.66016H22.5866C23.2283 3.66016 23.7776 3.88863 24.2345 4.34557C24.6915 4.80252 24.9199 5.35182 24.9199 5.99349V22.3268C24.9199 22.9685 24.6915 23.5178 24.2345 23.9747C23.7776 24.4317 23.2283 24.6602 22.5866 24.6602H6.25326ZM6.25326 22.3268H22.5866V5.99349H6.25326V22.3268Z" fill="#667085"/>
</g>
</svg>
