<svg width="24" height="24" viewBox="0 0 24 24" fill="none" xmlns="http://www.w3.org/2000/svg">
<mask id="mask0_947_14003" style="mask-type:alpha" maskUnits="userSpaceOnUse" x="0" y="0" width="24" height="24">
<rect width="24" height="24" fill="#D9D9D9"/>
</mask>
<g mask="url(#mask0_947_14003)">
<mask id="mask1_947_14003" style="mask-type:alpha" maskUnits="userSpaceOnUse" x="1" y="1" width="22" height="22">
<rect x="1.71484" y="1.71436" width="20.5714" height="20.5714" fill="#D9D9D9"/>
</mask>
<g mask="url(#mask1_947_14003)">
<path d="M12.0003 16.0549C12.1964 16.0549 12.3608 15.9886 12.4935 15.8559C12.6262 15.7232 12.6926 15.5588 12.6926 15.3626C12.6926 15.1665 12.6262 15.0021 12.4935 14.8694C12.3608 14.7367 12.1964 14.6704 12.0003 14.6704C11.8041 14.6704 11.6397 14.7367 11.507 14.8694C11.3743 15.0021 11.308 15.1665 11.308 15.3626C11.308 15.5588 11.3743 15.7232 11.507 15.8559C11.6397 15.9886 11.8041 16.0549 12.0003 16.0549ZM11.3574 12.9231H12.6431V7.78023H11.3574V12.9231ZM12.0017 20.1429C10.8755 20.1429 9.81686 19.9291 8.82589 19.5017C7.83491 19.0743 6.97289 18.4942 6.23985 17.7615C5.50679 17.0288 4.92646 16.1671 4.49884 15.1766C4.07123 14.1861 3.85742 13.1277 3.85742 12.0014C3.85742 10.8752 4.07114 9.81662 4.49856 8.82565C4.92599 7.83466 5.50606 6.97265 6.23878 6.23961C6.97151 5.50655 7.83314 4.92621 8.82369 4.4986C9.81422 4.07098 10.8726 3.85718 11.9988 3.85718C13.1251 3.85718 14.1837 4.07089 15.1746 4.49832C16.1656 4.92575 17.0276 5.50582 17.7607 6.23854C18.4937 6.97126 19.0741 7.8329 19.5017 8.82344C19.9293 9.81397 20.1431 10.8723 20.1431 11.9986C20.1431 13.1248 19.9294 14.1834 19.502 15.1744C19.0745 16.1654 18.4945 17.0274 17.7617 17.7604C17.029 18.4935 16.1674 19.0738 15.1768 19.5014C14.1863 19.929 13.1279 20.1429 12.0017 20.1429ZM12.0003 18.8572C13.9145 18.8572 15.536 18.1929 16.8645 16.8643C18.1931 15.5357 18.8574 13.9143 18.8574 12C18.8574 10.0857 18.1931 8.4643 16.8645 7.13573C15.536 5.80716 13.9145 5.14287 12.0003 5.14287C10.086 5.14287 8.46454 5.80716 7.13597 7.13573C5.8074 8.4643 5.14311 10.0857 5.14311 12C5.14311 13.9143 5.8074 15.5357 7.13597 16.8643C8.46454 18.1929 10.086 18.8572 12.0003 18.8572Z" fill="#DC362E"/>
</g>
</g>
</svg>
